<svg width="281" height="72" viewBox="0 0 281 72" fill="none" xmlns="http://www.w3.org/2000/svg">
<rect width="281" height="72" rx="36" fill="#3F0B3E"/>
<path d="M74.4792 44.24C72.3512 44.24 70.7272 43.664 69.6072 42.512C68.5032 41.344 67.9112 39.752 67.8312 37.736C67.8152 37.304 67.8072 36.6 67.8072 35.624C67.8072 34.632 67.8152 33.912 67.8312 33.464C67.9112 31.448 68.5032 29.864 69.6072 28.712C70.7272 27.544 72.3512 26.96 74.4792 26.96C75.9032 26.96 77.1112 27.216 78.1032 27.728C79.0952 28.224 79.8392 28.88 80.3352 29.696C80.8472 30.512 81.1272 31.384 81.1752 32.312C81.1752 32.456 81.1192 32.576 81.0072 32.672C80.9112 32.752 80.7912 32.792 80.6472 32.792H79.4472C79.2872 32.792 79.1592 32.752 79.0632 32.672C78.9672 32.592 78.8952 32.456 78.8472 32.264C78.5752 31.032 78.0792 30.168 77.3592 29.672C76.6552 29.176 75.6952 28.928 74.4792 28.928C71.6952 28.928 70.2472 30.48 70.1352 33.584C70.1192 34.016 70.1112 34.68 70.1112 35.576C70.1112 36.472 70.1192 37.152 70.1352 37.616C70.2472 40.704 71.6952 42.248 74.4792 42.248C75.6792 42.248 76.6392 42 77.3592 41.504C78.0792 41.008 78.5752 40.152 78.8472 38.936C78.8952 38.744 78.9672 38.608 79.0632 38.528C79.1592 38.448 79.2872 38.408 79.4472 38.408H80.6472C80.7912 38.408 80.9112 38.456 81.0072 38.552C81.1192 38.632 81.1752 38.744 81.1752 38.888C81.1272 39.816 80.8472 40.688 80.3352 41.504C79.8392 42.32 79.0952 42.984 78.1032 43.496C77.1112 43.992 75.9032 44.24 74.4792 44.24ZM89.1921 44.24C87.4321 44.24 86.0721 43.744 85.1121 42.752C84.1681 41.76 83.6641 40.44 83.6001 38.792L83.5761 37.76L83.6001 36.728C83.6641 35.08 84.1761 33.76 85.1361 32.768C86.1121 31.776 87.4641 31.28 89.1921 31.28C90.9201 31.28 92.2641 31.776 93.2241 32.768C94.2001 33.76 94.7201 35.08 94.7841 36.728C94.8161 37.08 94.8321 37.424 94.8321 37.76C94.8321 38.096 94.8161 38.44 94.7841 38.792C94.7201 40.44 94.2081 41.76 93.2481 42.752C92.3041 43.744 90.9521 44.24 89.1921 44.24ZM89.1921 42.44C90.2161 42.44 91.0241 42.12 91.6161 41.48C92.2241 40.824 92.5521 39.888 92.6001 38.672C92.6161 38.512 92.6241 38.208 92.6241 37.76C92.6241 37.312 92.6161 37.008 92.6001 36.848C92.5521 35.632 92.2241 34.704 91.6161 34.064C91.0241 33.408 90.2161 33.08 89.1921 33.08C88.1681 33.08 87.3521 33.408 86.7441 34.064C86.1521 34.704 85.8321 35.632 85.7841 36.848L85.7601 37.76L85.7841 38.672C85.8321 39.888 86.1521 40.824 86.7441 41.48C87.3521 42.12 88.1681 42.44 89.1921 42.44ZM98.4145 44C98.2545 44 98.1185 43.952 98.0065 43.856C97.9105 43.744 97.8625 43.608 97.8625 43.448V32.072C97.8625 31.912 97.9105 31.784 98.0065 31.688C98.1185 31.576 98.2545 31.52 98.4145 31.52H99.4225C99.5825 31.52 99.7105 31.576 99.8065 31.688C99.9025 31.784 99.9505 31.912 99.9505 32.072V32.888C100.815 31.816 101.983 31.28 103.455 31.28C105.215 31.28 106.463 32.016 107.199 33.488C107.583 32.816 108.127 32.28 108.831 31.88C109.551 31.48 110.351 31.28 111.231 31.28C112.543 31.28 113.615 31.728 114.447 32.624C115.279 33.52 115.695 34.816 115.695 36.512V43.448C115.695 43.608 115.639 43.744 115.527 43.856C115.431 43.952 115.303 44 115.143 44H114.111C113.951 44 113.815 43.952 113.703 43.856C113.607 43.744 113.559 43.608 113.559 43.448V36.728C113.559 35.448 113.295 34.536 112.767 33.992C112.239 33.432 111.543 33.152 110.679 33.152C109.911 33.152 109.247 33.44 108.687 34.016C108.143 34.576 107.871 35.48 107.871 36.728V43.448C107.871 43.608 107.815 43.744 107.703 43.856C107.607 43.952 107.479 44 107.319 44H106.263C106.103 44 105.967 43.952 105.855 43.856C105.759 43.744 105.711 43.608 105.711 43.448V36.728C105.711 35.464 105.431 34.552 104.871 33.992C104.327 33.432 103.647 33.152 102.831 33.152C102.063 33.152 101.399 33.432 100.839 33.992C100.295 34.552 100.023 35.456 100.023 36.704V43.448C100.023 43.608 99.9665 43.744 99.8545 43.856C99.7585 43.952 99.6305 44 99.4705 44H98.4145ZM119.527 29.168C119.367 29.168 119.231 29.12 119.119 29.024C119.023 28.912 118.975 28.776 118.975 28.616V27.368C118.975 27.208 119.023 27.072 119.119 26.96C119.231 26.848 119.367 26.792 119.527 26.792H120.943C121.103 26.792 121.239 26.848 121.351 26.96C121.463 27.072 121.519 27.208 121.519 27.368V28.616C121.519 28.776 121.463 28.912 121.351 29.024C121.239 29.12 121.103 29.168 120.943 29.168H119.527ZM119.719 44C119.559 44 119.423 43.952 119.311 43.856C119.215 43.744 119.167 43.608 119.167 43.448V32.072C119.167 31.912 119.215 31.784 119.311 31.688C119.423 31.576 119.559 31.52 119.719 31.52H120.775C120.935 31.52 121.063 31.576 121.159 31.688C121.271 31.784 121.327 31.912 121.327 32.072V43.448C121.327 43.608 121.271 43.744 121.159 43.856C121.063 43.952 120.935 44 120.775 44H119.719ZM125.485 44C125.325 44 125.189 43.952 125.077 43.856C124.981 43.744 124.933 43.608 124.933 43.448V32.072C124.933 31.912 124.981 31.784 125.077 31.688C125.189 31.576 125.325 31.52 125.485 31.52H126.517C126.693 31.52 126.829 31.568 126.925 31.664C127.021 31.76 127.069 31.896 127.069 32.072V33.128C127.549 32.536 128.101 32.08 128.725 31.76C129.365 31.44 130.157 31.28 131.101 31.28C132.637 31.28 133.829 31.776 134.677 32.768C135.525 33.744 135.949 35.04 135.949 36.656V43.448C135.949 43.608 135.893 43.744 135.781 43.856C135.685 43.952 135.557 44 135.397 44H134.293C134.133 44 133.997 43.952 133.885 43.856C133.789 43.744 133.741 43.608 133.741 43.448V36.8C133.741 35.648 133.461 34.752 132.901 34.112C132.341 33.472 131.541 33.152 130.501 33.152C129.477 33.152 128.661 33.48 128.053 34.136C127.445 34.776 127.141 35.664 127.141 36.8V43.448C127.141 43.608 127.085 43.744 126.973 43.856C126.877 43.952 126.749 44 126.589 44H125.485ZM144.481 49.28C143.153 49.28 142.089 49.056 141.289 48.608C140.489 48.16 139.921 47.648 139.585 47.072C139.265 46.496 139.105 46 139.105 45.584C139.105 45.44 139.161 45.312 139.273 45.2C139.385 45.104 139.513 45.056 139.657 45.056H140.713C140.857 45.056 140.977 45.088 141.073 45.152C141.169 45.232 141.249 45.368 141.313 45.56C141.761 46.84 142.777 47.48 144.361 47.48C145.561 47.48 146.449 47.224 147.025 46.712C147.601 46.2 147.889 45.296 147.889 44V42.344C146.961 43.528 145.665 44.12 144.001 44.12C142.305 44.12 141.033 43.576 140.185 42.488C139.353 41.4 138.913 40.024 138.865 38.36L138.841 37.688L138.865 37.04C138.913 35.392 139.353 34.024 140.185 32.936C141.033 31.832 142.305 31.28 144.001 31.28C145.681 31.28 146.993 31.896 147.937 33.128V32.096C147.937 31.936 147.985 31.8 148.081 31.688C148.193 31.576 148.329 31.52 148.489 31.52H149.521C149.681 31.52 149.809 31.576 149.905 31.688C150.017 31.8 150.073 31.936 150.073 32.096V43.736C150.073 47.432 148.209 49.28 144.481 49.28ZM144.433 42.248C145.553 42.248 146.393 41.888 146.953 41.168C147.529 40.432 147.841 39.552 147.889 38.528C147.905 38.384 147.913 38.104 147.913 37.688C147.913 37.288 147.905 37.016 147.889 36.872C147.841 35.848 147.529 34.976 146.953 34.256C146.393 33.52 145.553 33.152 144.433 33.152C143.281 33.152 142.441 33.52 141.913 34.256C141.401 34.976 141.121 35.912 141.073 37.064L141.049 37.688L141.073 38.336C141.121 39.488 141.401 40.432 141.913 41.168C142.441 41.888 143.281 42.248 144.433 42.248ZM165.261 44.24C163.949 44.24 162.805 44.032 161.829 43.616C160.869 43.2 160.133 42.656 159.621 41.984C159.125 41.296 158.861 40.56 158.829 39.776C158.829 39.648 158.877 39.536 158.973 39.44C159.069 39.344 159.189 39.296 159.333 39.296H160.509C160.797 39.296 160.997 39.456 161.109 39.776C161.253 40.448 161.661 41.032 162.333 41.528C163.021 42.008 163.997 42.248 165.261 42.248C166.621 42.248 167.637 42.008 168.309 41.528C168.981 41.048 169.317 40.384 169.317 39.536C169.317 38.992 169.149 38.544 168.813 38.192C168.493 37.84 168.005 37.536 167.349 37.28C166.709 37.008 165.741 36.68 164.445 36.296C163.213 35.944 162.229 35.568 161.493 35.168C160.773 34.768 160.229 34.28 159.861 33.704C159.493 33.112 159.309 32.368 159.309 31.472C159.309 30.608 159.541 29.84 160.005 29.168C160.469 28.48 161.141 27.944 162.021 27.56C162.901 27.16 163.941 26.96 165.141 26.96C166.389 26.96 167.453 27.184 168.333 27.632C169.229 28.064 169.909 28.616 170.373 29.288C170.837 29.944 171.085 30.608 171.117 31.28C171.117 31.424 171.069 31.544 170.973 31.64C170.877 31.736 170.757 31.784 170.613 31.784H169.413C169.285 31.784 169.165 31.744 169.053 31.664C168.941 31.584 168.861 31.464 168.813 31.304C168.717 30.616 168.333 30.048 167.661 29.6C166.989 29.152 166.149 28.928 165.141 28.928C164.053 28.928 163.189 29.144 162.549 29.576C161.909 29.992 161.589 30.616 161.589 31.448C161.589 32.008 161.733 32.464 162.021 32.816C162.325 33.168 162.781 33.48 163.389 33.752C164.013 34.024 164.917 34.336 166.101 34.688C167.461 35.072 168.525 35.456 169.293 35.84C170.077 36.224 170.661 36.704 171.045 37.28C171.429 37.84 171.621 38.568 171.621 39.464C171.621 40.968 171.045 42.144 169.893 42.992C168.757 43.824 167.213 44.24 165.261 44.24ZM179.544 44.24C177.784 44.24 176.424 43.744 175.464 42.752C174.52 41.76 174.016 40.44 173.952 38.792L173.928 37.76L173.952 36.728C174.016 35.08 174.528 33.76 175.488 32.768C176.464 31.776 177.816 31.28 179.544 31.28C181.272 31.28 182.616 31.776 183.576 32.768C184.552 33.76 185.072 35.08 185.136 36.728C185.168 37.08 185.184 37.424 185.184 37.76C185.184 38.096 185.168 38.44 185.136 38.792C185.072 40.44 184.56 41.76 183.6 42.752C182.656 43.744 181.304 44.24 179.544 44.24ZM179.544 42.44C180.568 42.44 181.376 42.12 181.968 41.48C182.576 40.824 182.904 39.888 182.952 38.672C182.968 38.512 182.976 38.208 182.976 37.76C182.976 37.312 182.968 37.008 182.952 36.848C182.904 35.632 182.576 34.704 181.968 34.064C181.376 33.408 180.568 33.08 179.544 33.08C178.52 33.08 177.704 33.408 177.096 34.064C176.504 34.704 176.184 35.632 176.136 36.848L176.112 37.76L176.136 38.672C176.184 39.888 176.504 40.824 177.096 41.48C177.704 42.12 178.52 42.44 179.544 42.44ZM193.278 44.24C191.518 44.24 190.158 43.744 189.198 42.752C188.254 41.76 187.75 40.44 187.686 38.792L187.662 37.76L187.686 36.728C187.75 35.08 188.262 33.76 189.222 32.768C190.198 31.776 191.55 31.28 193.278 31.28C195.006 31.28 196.35 31.776 197.31 32.768C198.286 33.76 198.806 35.08 198.87 36.728C198.902 37.08 198.918 37.424 198.918 37.76C198.918 38.096 198.902 38.44 198.87 38.792C198.806 40.44 198.294 41.76 197.334 42.752C196.39 43.744 195.038 44.24 193.278 44.24ZM193.278 42.44C194.302 42.44 195.11 42.12 195.702 41.48C196.31 40.824 196.638 39.888 196.686 38.672C196.702 38.512 196.71 38.208 196.71 37.76C196.71 37.312 196.702 37.008 196.686 36.848C196.638 35.632 196.31 34.704 195.702 34.064C195.11 33.408 194.302 33.08 193.278 33.08C192.254 33.08 191.438 33.408 190.83 34.064C190.238 34.704 189.918 35.632 189.87 36.848L189.846 37.76L189.87 38.672C189.918 39.888 190.238 40.824 190.83 41.48C191.438 42.12 192.254 42.44 193.278 42.44ZM202.5 44C202.34 44 202.204 43.952 202.092 43.856C201.996 43.744 201.948 43.608 201.948 43.448V32.072C201.948 31.912 201.996 31.784 202.092 31.688C202.204 31.576 202.34 31.52 202.5 31.52H203.532C203.708 31.52 203.844 31.568 203.94 31.664C204.036 31.76 204.084 31.896 204.084 32.072V33.128C204.564 32.536 205.116 32.08 205.74 31.76C206.38 31.44 207.172 31.28 208.116 31.28C209.652 31.28 210.844 31.776 211.692 32.768C212.54 33.744 212.964 35.04 212.964 36.656V43.448C212.964 43.608 212.908 43.744 212.796 43.856C212.7 43.952 212.572 44 212.412 44H211.308C211.148 44 211.012 43.952 210.9 43.856C210.804 43.744 210.756 43.608 210.756 43.448V36.8C210.756 35.648 210.476 34.752 209.916 34.112C209.356 33.472 208.556 33.152 207.516 33.152C206.492 33.152 205.676 33.48 205.068 34.136C204.46 34.776 204.156 35.664 204.156 36.8V43.448C204.156 43.608 204.1 43.744 203.988 43.856C203.892 43.952 203.764 44 203.604 44H202.5Z" fill="white"/>
</svg>
