<svg width="342" height="531" viewBox="0 0 342 531" fill="none" xmlns="http://www.w3.org/2000/svg">
<rect x="0.166016" y="80" width="341.667" height="451" rx="5" fill="#FFBA53"/>
<path fill-rule="evenodd" clip-rule="evenodd" d="M256.734 531H81.0954C80.054 528.353 78.7512 525.407 77.1308 522.177C70.3982 508.758 64.3992 473.575 62.2413 457.661L35.6992 445.403C42.3887 420.887 57.0624 367.21 62.2413 348.629C67.6215 329.326 77.4731 324.729 89.9381 318.912C92.4715 317.73 95.1129 316.497 97.8466 315.081C110.794 308.371 126.547 301.532 132.804 298.952C134.617 293.532 133.56 286.371 132.804 283.468C129.783 281.855 122.641 277.984 118.239 275.403C112.736 272.177 101.407 255.081 97.8466 249.274C94.2861 243.468 88.7834 234.435 92.9913 216.371C95.8085 204.277 96.3043 200.135 96.81 195.911C97.0596 193.826 97.3117 191.721 97.8466 188.629C99.3882 179.718 105.041 179.295 116.484 178.439C117.055 178.396 117.639 178.352 118.239 178.306C123.658 177.891 128.003 175.871 132.452 173.802C138.368 171.051 144.468 168.215 153.52 168.952C169.381 170.242 190.744 175.403 199.807 181.532C208.14 187.168 209.632 191.439 212.838 200.616C213.119 201.42 213.413 202.262 213.726 203.145C217.61 214.113 212.107 223.145 206.604 223.145C201.102 223.145 200.778 236.048 202.72 249.274C201.667 255.19 200.841 260.71 200.098 265.669C198.33 277.474 197.04 286.094 194.304 289.274C198.62 289.919 208.547 291.855 213.726 294.435C220.199 297.661 261.631 325.403 268.752 337.016C274.449 346.306 296.157 415.296 306.299 448.629L279.11 457.661C279.541 465.403 280.146 483.21 279.11 492.5C278.074 501.79 263.573 511.855 256.452 515.726C256.931 521.333 256.981 526.427 256.734 531Z" fill="#3D0B3C"/>
<path d="M88.2728 127.433C85.6128 127.433 83.5828 126.713 82.1828 125.273C80.8028 123.813 80.0628 121.823 79.9628 119.303C79.9428 118.763 79.9328 117.883 79.9328 116.663C79.9328 115.423 79.9428 114.523 79.9628 113.963C80.0628 111.443 80.8028 109.463 82.1828 108.023C83.5828 106.563 85.6128 105.833 88.2728 105.833C90.0528 105.833 91.5628 106.153 92.8028 106.793C94.0428 107.413 94.9728 108.233 95.5928 109.253C96.2328 110.273 96.5828 111.363 96.6428 112.523C96.6428 112.703 96.5728 112.853 96.4328 112.973C96.3128 113.073 96.1628 113.123 95.9828 113.123H94.4828C94.2828 113.123 94.1228 113.073 94.0028 112.973C93.8828 112.873 93.7928 112.703 93.7328 112.463C93.3928 110.923 92.7728 109.843 91.8728 109.223C90.9928 108.603 89.7928 108.293 88.2728 108.293C84.7928 108.293 82.9828 110.233 82.8428 114.113C82.8228 114.653 82.8128 115.483 82.8128 116.603C82.8128 117.723 82.8228 118.573 82.8428 119.153C82.9828 123.013 84.7928 124.943 88.2728 124.943C89.7728 124.943 90.9728 124.633 91.8728 124.013C92.7728 123.393 93.3928 122.323 93.7328 120.803C93.7928 120.563 93.8828 120.393 94.0028 120.293C94.1228 120.193 94.2828 120.143 94.4828 120.143H95.9828C96.1628 120.143 96.3128 120.203 96.4328 120.323C96.5728 120.423 96.6428 120.563 96.6428 120.743C96.5828 121.903 96.2328 122.993 95.5928 124.013C94.9728 125.033 94.0428 125.863 92.8028 126.503C91.5628 127.123 90.0528 127.433 88.2728 127.433ZM106.664 127.433C104.464 127.433 102.764 126.813 101.564 125.573C100.384 124.333 99.754 122.683 99.674 120.623L99.644 119.333L99.674 118.043C99.754 115.983 100.394 114.333 101.594 113.093C102.814 111.853 104.504 111.233 106.664 111.233C108.824 111.233 110.504 111.853 111.704 113.093C112.924 114.333 113.574 115.983 113.654 118.043C113.694 118.483 113.714 118.913 113.714 119.333C113.714 119.753 113.694 120.183 113.654 120.623C113.574 122.683 112.934 124.333 111.734 125.573C110.554 126.813 108.864 127.433 106.664 127.433ZM106.664 125.183C107.944 125.183 108.954 124.783 109.694 123.983C110.454 123.163 110.864 121.993 110.924 120.473C110.944 120.273 110.954 119.893 110.954 119.333C110.954 118.773 110.944 118.393 110.924 118.193C110.864 116.673 110.454 115.513 109.694 114.713C108.954 113.893 107.944 113.483 106.664 113.483C105.384 113.483 104.364 113.893 103.604 114.713C102.864 115.513 102.464 116.673 102.404 118.193L102.374 119.333L102.404 120.473C102.464 121.993 102.864 123.163 103.604 123.983C104.364 124.783 105.384 125.183 106.664 125.183ZM118.192 127.133C117.992 127.133 117.822 127.073 117.682 126.953C117.562 126.813 117.502 126.643 117.502 126.443V112.223C117.502 112.023 117.562 111.863 117.682 111.743C117.822 111.603 117.992 111.533 118.192 111.533H119.452C119.652 111.533 119.812 111.603 119.932 111.743C120.052 111.863 120.112 112.023 120.112 112.223V113.243C121.192 111.903 122.652 111.233 124.492 111.233C126.692 111.233 128.252 112.153 129.172 113.993C129.652 113.153 130.332 112.483 131.212 111.983C132.112 111.483 133.112 111.233 134.212 111.233C135.852 111.233 137.192 111.793 138.232 112.913C139.272 114.033 139.792 115.653 139.792 117.773V126.443C139.792 126.643 139.722 126.813 139.582 126.953C139.462 127.073 139.302 127.133 139.102 127.133H137.812C137.612 127.133 137.442 127.073 137.302 126.953C137.182 126.813 137.122 126.643 137.122 126.443V118.043C137.122 116.443 136.792 115.303 136.132 114.623C135.472 113.923 134.602 113.573 133.522 113.573C132.562 113.573 131.732 113.933 131.032 114.653C130.352 115.353 130.012 116.483 130.012 118.043V126.443C130.012 126.643 129.942 126.813 129.802 126.953C129.682 127.073 129.522 127.133 129.322 127.133H128.002C127.802 127.133 127.632 127.073 127.492 126.953C127.372 126.813 127.312 126.643 127.312 126.443V118.043C127.312 116.463 126.962 115.323 126.262 114.623C125.582 113.923 124.732 113.573 123.712 113.573C122.752 113.573 121.922 113.923 121.222 114.623C120.542 115.323 120.202 116.453 120.202 118.013V126.443C120.202 126.643 120.132 126.813 119.992 126.953C119.872 127.073 119.712 127.133 119.512 127.133H118.192ZM144.583 108.593C144.383 108.593 144.213 108.533 144.073 108.413C143.953 108.273 143.893 108.103 143.893 107.903V106.343C143.893 106.143 143.953 105.973 144.073 105.833C144.213 105.693 144.383 105.623 144.583 105.623H146.353C146.553 105.623 146.723 105.693 146.863 105.833C147.003 105.973 147.073 106.143 147.073 106.343V107.903C147.073 108.103 147.003 108.273 146.863 108.413C146.723 108.533 146.553 108.593 146.353 108.593H144.583ZM144.823 127.133C144.623 127.133 144.453 127.073 144.313 126.953C144.193 126.813 144.133 126.643 144.133 126.443V112.223C144.133 112.023 144.193 111.863 144.313 111.743C144.453 111.603 144.623 111.533 144.823 111.533H146.143C146.343 111.533 146.503 111.603 146.623 111.743C146.763 111.863 146.833 112.023 146.833 112.223V126.443C146.833 126.643 146.763 126.813 146.623 126.953C146.503 127.073 146.343 127.133 146.143 127.133H144.823ZM152.03 127.133C151.83 127.133 151.66 127.073 151.52 126.953C151.4 126.813 151.34 126.643 151.34 126.443V112.223C151.34 112.023 151.4 111.863 151.52 111.743C151.66 111.603 151.83 111.533 152.03 111.533H153.32C153.54 111.533 153.71 111.593 153.83 111.713C153.95 111.833 154.01 112.003 154.01 112.223V113.543C154.61 112.803 155.3 112.233 156.08 111.833C156.88 111.433 157.87 111.233 159.05 111.233C160.97 111.233 162.46 111.853 163.52 113.093C164.58 114.313 165.11 115.933 165.11 117.953V126.443C165.11 126.643 165.04 126.813 164.9 126.953C164.78 127.073 164.62 127.133 164.42 127.133H163.04C162.84 127.133 162.67 127.073 162.53 126.953C162.41 126.813 162.35 126.643 162.35 126.443V118.133C162.35 116.693 162 115.573 161.3 114.773C160.6 113.973 159.6 113.573 158.3 113.573C157.02 113.573 156 113.983 155.24 114.803C154.48 115.603 154.1 116.713 154.1 118.133V126.443C154.1 126.643 154.03 126.813 153.89 126.953C153.77 127.073 153.61 127.133 153.41 127.133H152.03ZM175.775 133.733C174.115 133.733 172.785 133.453 171.785 132.893C170.785 132.333 170.075 131.693 169.655 130.973C169.255 130.253 169.055 129.633 169.055 129.113C169.055 128.933 169.125 128.773 169.265 128.633C169.405 128.513 169.565 128.453 169.745 128.453H171.065C171.245 128.453 171.395 128.493 171.515 128.573C171.635 128.673 171.735 128.843 171.815 129.083C172.375 130.683 173.645 131.483 175.625 131.483C177.125 131.483 178.235 131.163 178.955 130.523C179.675 129.883 180.035 128.753 180.035 127.133V125.063C178.875 126.543 177.255 127.283 175.175 127.283C173.055 127.283 171.465 126.603 170.405 125.243C169.365 123.883 168.815 122.163 168.755 120.083L168.725 119.243L168.755 118.433C168.815 116.373 169.365 114.663 170.405 113.303C171.465 111.923 173.055 111.233 175.175 111.233C177.275 111.233 178.915 112.003 180.095 113.543V112.253C180.095 112.053 180.155 111.883 180.275 111.743C180.415 111.603 180.585 111.533 180.785 111.533H182.075C182.275 111.533 182.435 111.603 182.555 111.743C182.695 111.883 182.765 112.053 182.765 112.253V126.803C182.765 131.423 180.435 133.733 175.775 133.733ZM175.715 124.943C177.115 124.943 178.165 124.493 178.865 123.593C179.585 122.673 179.975 121.573 180.035 120.293C180.055 120.113 180.065 119.763 180.065 119.243C180.065 118.743 180.055 118.403 180.035 118.223C179.975 116.943 179.585 115.853 178.865 114.953C178.165 114.033 177.115 113.573 175.715 113.573C174.275 113.573 173.225 114.033 172.565 114.953C171.925 115.853 171.575 117.023 171.515 118.463L171.485 119.243L171.515 120.053C171.575 121.493 171.925 122.673 172.565 123.593C173.225 124.493 174.275 124.943 175.715 124.943ZM201.75 127.433C200.11 127.433 198.68 127.173 197.46 126.653C196.26 126.133 195.34 125.453 194.7 124.613C194.08 123.753 193.75 122.833 193.71 121.853C193.71 121.693 193.77 121.553 193.89 121.433C194.01 121.313 194.16 121.253 194.34 121.253H195.81C196.17 121.253 196.42 121.453 196.56 121.853C196.74 122.693 197.25 123.423 198.09 124.043C198.95 124.643 200.17 124.943 201.75 124.943C203.45 124.943 204.72 124.643 205.56 124.043C206.4 123.443 206.82 122.613 206.82 121.553C206.82 120.873 206.61 120.313 206.19 119.873C205.79 119.433 205.18 119.053 204.36 118.733C203.56 118.393 202.35 117.983 200.73 117.503C199.19 117.063 197.96 116.593 197.04 116.093C196.14 115.593 195.46 114.983 195 114.263C194.54 113.523 194.31 112.593 194.31 111.473C194.31 110.393 194.6 109.433 195.18 108.593C195.76 107.733 196.6 107.063 197.7 106.583C198.8 106.083 200.1 105.833 201.6 105.833C203.16 105.833 204.49 106.113 205.59 106.673C206.71 107.213 207.56 107.903 208.14 108.743C208.72 109.563 209.03 110.393 209.07 111.233C209.07 111.413 209.01 111.563 208.89 111.683C208.77 111.803 208.62 111.863 208.44 111.863H206.94C206.78 111.863 206.63 111.813 206.49 111.713C206.35 111.613 206.25 111.463 206.19 111.263C206.07 110.403 205.59 109.693 204.75 109.133C203.91 108.573 202.86 108.293 201.6 108.293C200.24 108.293 199.16 108.563 198.36 109.103C197.56 109.623 197.16 110.403 197.16 111.443C197.16 112.143 197.34 112.713 197.7 113.153C198.08 113.593 198.65 113.983 199.41 114.323C200.19 114.663 201.32 115.053 202.8 115.493C204.5 115.973 205.83 116.453 206.79 116.933C207.77 117.413 208.5 118.013 208.98 118.733C209.46 119.433 209.7 120.343 209.7 121.463C209.7 123.343 208.98 124.813 207.54 125.873C206.12 126.913 204.19 127.433 201.75 127.433ZM219.603 127.433C217.403 127.433 215.703 126.813 214.503 125.573C213.323 124.333 212.693 122.683 212.613 120.623L212.583 119.333L212.613 118.043C212.693 115.983 213.333 114.333 214.533 113.093C215.753 111.853 217.443 111.233 219.603 111.233C221.763 111.233 223.443 111.853 224.643 113.093C225.863 114.333 226.513 115.983 226.593 118.043C226.633 118.483 226.653 118.913 226.653 119.333C226.653 119.753 226.633 120.183 226.593 120.623C226.513 122.683 225.873 124.333 224.673 125.573C223.493 126.813 221.803 127.433 219.603 127.433ZM219.603 125.183C220.883 125.183 221.893 124.783 222.633 123.983C223.393 123.163 223.803 121.993 223.863 120.473C223.883 120.273 223.893 119.893 223.893 119.333C223.893 118.773 223.883 118.393 223.863 118.193C223.803 116.673 223.393 115.513 222.633 114.713C221.893 113.893 220.883 113.483 219.603 113.483C218.323 113.483 217.303 113.893 216.543 114.713C215.803 115.513 215.403 116.673 215.343 118.193L215.313 119.333L215.343 120.473C215.403 121.993 215.803 123.163 216.543 123.983C217.303 124.783 218.323 125.183 219.603 125.183ZM236.771 127.433C234.571 127.433 232.871 126.813 231.671 125.573C230.491 124.333 229.861 122.683 229.781 120.623L229.751 119.333L229.781 118.043C229.861 115.983 230.501 114.333 231.701 113.093C232.921 111.853 234.611 111.233 236.771 111.233C238.931 111.233 240.611 111.853 241.811 113.093C243.031 114.333 243.681 115.983 243.761 118.043C243.801 118.483 243.821 118.913 243.821 119.333C243.821 119.753 243.801 120.183 243.761 120.623C243.681 122.683 243.041 124.333 241.841 125.573C240.661 126.813 238.971 127.433 236.771 127.433ZM236.771 125.183C238.051 125.183 239.061 124.783 239.801 123.983C240.561 123.163 240.971 121.993 241.031 120.473C241.051 120.273 241.061 119.893 241.061 119.333C241.061 118.773 241.051 118.393 241.031 118.193C240.971 116.673 240.561 115.513 239.801 114.713C239.061 113.893 238.051 113.483 236.771 113.483C235.491 113.483 234.471 113.893 233.711 114.713C232.971 115.513 232.571 116.673 232.511 118.193L232.481 119.333L232.511 120.473C232.571 121.993 232.971 123.163 233.711 123.983C234.471 124.783 235.491 125.183 236.771 125.183ZM248.299 127.133C248.099 127.133 247.929 127.073 247.789 126.953C247.669 126.813 247.609 126.643 247.609 126.443V112.223C247.609 112.023 247.669 111.863 247.789 111.743C247.929 111.603 248.099 111.533 248.299 111.533H249.589C249.809 111.533 249.979 111.593 250.099 111.713C250.219 111.833 250.279 112.003 250.279 112.223V113.543C250.879 112.803 251.569 112.233 252.349 111.833C253.149 111.433 254.139 111.233 255.319 111.233C257.239 111.233 258.729 111.853 259.789 113.093C260.849 114.313 261.379 115.933 261.379 117.953V126.443C261.379 126.643 261.309 126.813 261.169 126.953C261.049 127.073 260.889 127.133 260.689 127.133H259.309C259.109 127.133 258.939 127.073 258.799 126.953C258.679 126.813 258.619 126.643 258.619 126.443V118.133C258.619 116.693 258.269 115.573 257.569 114.773C256.869 113.973 255.869 113.573 254.569 113.573C253.289 113.573 252.269 113.983 251.509 114.803C250.749 115.603 250.369 116.713 250.369 118.133V126.443C250.369 126.643 250.299 126.813 250.159 126.953C250.039 127.073 249.879 127.133 249.679 127.133H248.299Z" fill="#3D0B3C"/>
<rect x="71" width="201" height="47" fill="white"/>
<path d="M104.701 34.3C101.941 34.3 99.7909 33.59 98.2509 32.17C96.7309 30.75 95.9209 28.77 95.8209 26.23C95.8009 25.65 95.7909 24.72 95.7909 23.44C95.7909 22.16 95.8009 21.23 95.8209 20.65C95.9009 18.17 96.7209 16.23 98.2809 14.83C99.8409 13.41 101.981 12.7 104.701 12.7C106.541 12.7 108.121 13.02 109.441 13.66C110.781 14.28 111.791 15.06 112.471 16C113.151 16.92 113.511 17.83 113.551 18.73C113.551 18.91 113.491 19.06 113.371 19.18C113.251 19.3 113.091 19.36 112.891 19.36H109.741C109.541 19.36 109.391 19.32 109.291 19.24C109.191 19.16 109.101 19.03 109.021 18.85C108.741 18.11 108.251 17.48 107.551 16.96C106.851 16.44 105.901 16.18 104.701 16.18C103.301 16.18 102.201 16.56 101.401 17.32C100.621 18.06 100.211 19.22 100.171 20.8C100.151 21.38 100.141 22.26 100.141 23.44C100.141 24.6 100.151 25.48 100.171 26.08C100.211 27.7 100.631 28.9 101.431 29.68C102.231 30.44 103.331 30.82 104.731 30.82C106.151 30.82 107.291 30.44 108.151 29.68C109.011 28.92 109.441 27.78 109.441 26.26V25.33H105.781C105.581 25.33 105.411 25.26 105.271 25.12C105.131 24.98 105.061 24.81 105.061 24.61V22.96C105.061 22.76 105.131 22.59 105.271 22.45C105.411 22.31 105.581 22.24 105.781 22.24H112.981C113.201 22.24 113.381 22.31 113.521 22.45C113.661 22.59 113.731 22.76 113.731 22.96V26.14C113.731 27.8 113.361 29.25 112.621 30.49C111.881 31.71 110.831 32.65 109.471 33.31C108.111 33.97 106.521 34.3 104.701 34.3ZM122.976 34.3C121.136 34.3 119.686 33.7 118.626 32.5C117.566 31.3 117.036 29.65 117.036 27.55V19.12C117.036 18.9 117.106 18.73 117.246 18.61C117.386 18.47 117.556 18.4 117.756 18.4H120.456C120.656 18.4 120.826 18.47 120.966 18.61C121.106 18.75 121.176 18.92 121.176 19.12V27.37C121.176 29.83 122.246 31.06 124.386 31.06C125.426 31.06 126.246 30.73 126.846 30.07C127.466 29.41 127.776 28.51 127.776 27.37V19.12C127.776 18.9 127.846 18.73 127.986 18.61C128.126 18.47 128.296 18.4 128.496 18.4H131.166C131.386 18.4 131.556 18.47 131.676 18.61C131.816 18.73 131.886 18.9 131.886 19.12V33.28C131.886 33.48 131.816 33.65 131.676 33.79C131.556 33.93 131.386 34 131.166 34H128.676C128.476 34 128.306 33.93 128.166 33.79C128.026 33.65 127.956 33.48 127.956 33.28V32.05C126.856 33.55 125.196 34.3 122.976 34.3ZM142.598 34.3C140.358 34.3 138.578 33.66 137.258 32.38C135.958 31.1 135.268 29.28 135.188 26.92L135.158 26.17C135.158 23.67 135.808 21.7 137.108 20.26C138.428 18.82 140.248 18.1 142.568 18.1C144.948 18.1 146.778 18.82 148.058 20.26C149.358 21.7 150.008 23.62 150.008 26.02V26.65C150.008 26.85 149.938 27.02 149.798 27.16C149.658 27.3 149.478 27.37 149.258 27.37H139.298V27.61C139.338 28.73 139.638 29.66 140.198 30.4C140.778 31.12 141.568 31.48 142.568 31.48C143.708 31.48 144.638 31.02 145.358 30.1C145.538 29.88 145.678 29.75 145.778 29.71C145.878 29.65 146.048 29.62 146.288 29.62H148.928C149.108 29.62 149.258 29.67 149.378 29.77C149.518 29.87 149.588 30.01 149.588 30.19C149.588 30.67 149.298 31.24 148.718 31.9C148.158 32.54 147.348 33.1 146.288 33.58C145.228 34.06 143.998 34.3 142.598 34.3ZM145.868 24.82V24.76C145.868 23.58 145.568 22.64 144.968 21.94C144.388 21.22 143.588 20.86 142.568 20.86C141.548 20.86 140.748 21.22 140.168 21.94C139.588 22.64 139.298 23.58 139.298 24.76V24.82H145.868ZM159.132 34.3C157.612 34.3 156.342 34.07 155.322 33.61C154.302 33.15 153.542 32.62 153.042 32.02C152.562 31.4 152.322 30.87 152.322 30.43C152.322 30.23 152.382 30.07 152.502 29.95C152.642 29.83 152.802 29.77 152.982 29.77H155.442C155.602 29.77 155.742 29.85 155.862 30.01C155.962 30.09 156.182 30.28 156.522 30.58C156.882 30.88 157.282 31.12 157.722 31.3C158.182 31.46 158.682 31.54 159.222 31.54C160.022 31.54 160.672 31.39 161.172 31.09C161.672 30.77 161.922 30.32 161.922 29.74C161.922 29.34 161.802 29.02 161.562 28.78C161.342 28.52 160.932 28.29 160.332 28.09C159.752 27.87 158.872 27.63 157.692 27.37C155.992 27.01 154.732 26.46 153.912 25.72C153.112 24.98 152.712 24 152.712 22.78C152.712 21.98 152.952 21.23 153.432 20.53C153.912 19.81 154.622 19.23 155.562 18.79C156.522 18.33 157.662 18.1 158.982 18.1C160.342 18.1 161.512 18.32 162.492 18.76C163.472 19.18 164.212 19.69 164.712 20.29C165.232 20.89 165.492 21.42 165.492 21.88C165.492 22.06 165.422 22.22 165.282 22.36C165.162 22.48 165.012 22.54 164.832 22.54H162.582C162.362 22.54 162.192 22.46 162.072 22.3C161.932 22.2 161.702 22.02 161.382 21.76C161.082 21.48 160.742 21.26 160.362 21.1C159.982 20.94 159.522 20.86 158.982 20.86C158.242 20.86 157.672 21.02 157.272 21.34C156.872 21.66 156.672 22.08 156.672 22.6C156.672 22.96 156.762 23.26 156.942 23.5C157.142 23.74 157.532 23.97 158.112 24.19C158.692 24.39 159.562 24.6 160.722 24.82C164.322 25.52 166.122 27.09 166.122 29.53C166.122 30.95 165.502 32.1 164.262 32.98C163.042 33.86 161.332 34.3 159.132 34.3ZM176.209 34C174.389 34 173.019 33.53 172.099 32.59C171.179 31.63 170.719 30.23 170.719 28.39V21.61H168.349C168.149 21.61 167.979 21.54 167.839 21.4C167.699 21.26 167.629 21.09 167.629 20.89V19.12C167.629 18.92 167.699 18.75 167.839 18.61C167.979 18.47 168.149 18.4 168.349 18.4H170.719V13.42C170.719 13.2 170.789 13.03 170.929 12.91C171.069 12.77 171.239 12.7 171.439 12.7H173.929C174.149 12.7 174.319 12.77 174.439 12.91C174.579 13.03 174.649 13.2 174.649 13.42V18.4H178.399C178.599 18.4 178.769 18.47 178.909 18.61C179.049 18.75 179.119 18.92 179.119 19.12V20.89C179.119 21.09 179.049 21.26 178.909 21.4C178.769 21.54 178.599 21.61 178.399 21.61H174.649V28.06C174.649 28.92 174.799 29.57 175.099 30.01C175.399 30.45 175.889 30.67 176.569 30.67H178.669C178.889 30.67 179.059 30.74 179.179 30.88C179.319 31 179.389 31.17 179.389 31.39V33.28C179.389 33.48 179.319 33.65 179.179 33.79C179.059 33.93 178.889 34 178.669 34H176.209ZM196.556 34.3C194.756 34.3 193.216 34.03 191.936 33.49C190.656 32.95 189.686 32.24 189.026 31.36C188.366 30.48 188.016 29.52 187.976 28.48C187.976 28.32 188.036 28.18 188.156 28.06C188.276 27.92 188.426 27.85 188.606 27.85H191.336C191.556 27.85 191.736 27.9 191.876 28C192.016 28.1 192.146 28.24 192.266 28.42C192.466 29.1 192.916 29.67 193.616 30.13C194.336 30.59 195.316 30.82 196.556 30.82C197.956 30.82 199.006 30.59 199.706 30.13C200.426 29.65 200.786 29 200.786 28.18C200.786 27.64 200.606 27.19 200.246 26.83C199.886 26.47 199.336 26.16 198.596 25.9C197.876 25.62 196.796 25.29 195.356 24.91C192.996 24.35 191.266 23.61 190.166 22.69C189.066 21.77 188.516 20.45 188.516 18.73C188.516 17.57 188.836 16.54 189.476 15.64C190.116 14.72 191.026 14 192.206 13.48C193.406 12.96 194.796 12.7 196.376 12.7C198.036 12.7 199.466 12.99 200.666 13.57C201.886 14.15 202.806 14.88 203.426 15.76C204.066 16.62 204.406 17.48 204.446 18.34C204.446 18.5 204.386 18.65 204.266 18.79C204.146 18.91 203.996 18.97 203.816 18.97H200.966C200.526 18.97 200.226 18.79 200.066 18.43C199.966 17.79 199.576 17.26 198.896 16.84C198.216 16.4 197.376 16.18 196.376 16.18C195.276 16.18 194.406 16.39 193.766 16.81C193.146 17.23 192.836 17.84 192.836 18.64C192.836 19.18 192.996 19.63 193.316 19.99C193.636 20.35 194.136 20.67 194.816 20.95C195.496 21.21 196.486 21.51 197.786 21.85C199.566 22.25 200.976 22.7 202.016 23.2C203.076 23.7 203.856 24.33 204.356 25.09C204.856 25.85 205.106 26.82 205.106 28C205.106 29.3 204.746 30.43 204.026 31.39C203.326 32.33 202.326 33.05 201.026 33.55C199.746 34.05 198.256 34.3 196.556 34.3ZM215.233 34C213.413 34 212.043 33.53 211.123 32.59C210.203 31.63 209.743 30.23 209.743 28.39V21.61H207.373C207.173 21.61 207.003 21.54 206.863 21.4C206.723 21.26 206.653 21.09 206.653 20.89V19.12C206.653 18.92 206.723 18.75 206.863 18.61C207.003 18.47 207.173 18.4 207.373 18.4H209.743V13.42C209.743 13.2 209.813 13.03 209.953 12.91C210.093 12.77 210.263 12.7 210.463 12.7H212.953C213.173 12.7 213.343 12.77 213.463 12.91C213.603 13.03 213.673 13.2 213.673 13.42V18.4H217.423C217.623 18.4 217.793 18.47 217.933 18.61C218.073 18.75 218.143 18.92 218.143 19.12V20.89C218.143 21.09 218.073 21.26 217.933 21.4C217.793 21.54 217.623 21.61 217.423 21.61H213.673V28.06C213.673 28.92 213.823 29.57 214.123 30.01C214.423 30.45 214.913 30.67 215.593 30.67H217.693C217.913 30.67 218.083 30.74 218.203 30.88C218.343 31 218.413 31.17 218.413 31.39V33.28C218.413 33.48 218.343 33.65 218.203 33.79C218.083 33.93 217.913 34 217.693 34H215.233ZM225.603 34.3C224.583 34.3 223.643 34.1 222.783 33.7C221.943 33.28 221.273 32.72 220.773 32.02C220.293 31.32 220.053 30.55 220.053 29.71C220.053 28.35 220.603 27.25 221.703 26.41C222.803 25.57 224.313 25 226.233 24.7L230.343 24.1V23.47C230.343 22.61 230.123 21.96 229.683 21.52C229.243 21.08 228.543 20.86 227.583 20.86C226.923 20.86 226.393 20.98 225.993 21.22C225.593 21.46 225.263 21.71 225.003 21.97C224.763 22.21 224.603 22.37 224.523 22.45C224.443 22.69 224.293 22.81 224.073 22.81H221.733C221.553 22.81 221.393 22.75 221.253 22.63C221.133 22.51 221.073 22.35 221.073 22.15C221.093 21.65 221.333 21.09 221.793 20.47C222.273 19.83 223.003 19.28 223.983 18.82C224.963 18.34 226.173 18.1 227.613 18.1C229.973 18.1 231.693 18.63 232.773 19.69C233.853 20.75 234.393 22.14 234.393 23.86V33.28C234.393 33.48 234.323 33.65 234.183 33.79C234.063 33.93 233.893 34 233.673 34H231.183C230.983 34 230.813 33.93 230.673 33.79C230.533 33.65 230.463 33.48 230.463 33.28V32.11C230.023 32.75 229.403 33.28 228.603 33.7C227.803 34.1 226.803 34.3 225.603 34.3ZM226.623 31.42C227.723 31.42 228.623 31.06 229.323 30.34C230.023 29.62 230.373 28.58 230.373 27.22V26.62L227.373 27.1C225.073 27.46 223.923 28.23 223.923 29.41C223.923 30.05 224.183 30.55 224.703 30.91C225.243 31.25 225.883 31.42 226.623 31.42ZM238.961 34C238.761 34 238.591 33.93 238.451 33.79C238.311 33.65 238.241 33.48 238.241 33.28V19.15C238.241 18.93 238.311 18.75 238.451 18.61C238.591 18.47 238.761 18.4 238.961 18.4H241.421C241.641 18.4 241.821 18.47 241.961 18.61C242.101 18.75 242.171 18.93 242.171 19.15V20.38C243.171 19.06 244.611 18.4 246.491 18.4H247.751C247.971 18.4 248.141 18.47 248.261 18.61C248.401 18.73 248.471 18.9 248.471 19.12V21.31C248.471 21.51 248.401 21.68 248.261 21.82C248.141 21.96 247.971 22.03 247.751 22.03H245.381C244.441 22.03 243.701 22.3 243.161 22.84C242.621 23.38 242.351 24.12 242.351 25.06V33.28C242.351 33.48 242.281 33.65 242.141 33.79C242.001 33.93 241.831 34 241.631 34H238.961Z" fill="#3E0B3D"/>
</svg>
