<svg width="457" height="47" viewBox="0 0 457 47" fill="none" xmlns="http://www.w3.org/2000/svg">
<rect width="457" height="47" fill="white"/>
<path d="M30.5806 34.3C27.8206 34.3 25.6806 33.6 24.1606 32.2C22.6606 30.78 21.8606 28.77 21.7606 26.17C21.7406 25.63 21.7306 24.75 21.7306 23.53C21.7306 22.29 21.7406 21.39 21.7606 20.83C21.8606 18.27 22.6706 16.28 24.1906 14.86C25.7106 13.42 27.8406 12.7 30.5806 12.7C32.3606 12.7 33.9106 13.01 35.2306 13.63C36.5506 14.23 37.5706 15.06 38.2906 16.12C39.0306 17.18 39.4206 18.37 39.4606 19.69V19.75C39.4606 19.91 39.3906 20.05 39.2506 20.17C39.1306 20.27 38.9906 20.32 38.8306 20.32H35.9206C35.6806 20.32 35.5006 20.27 35.3806 20.17C35.2606 20.05 35.1606 19.85 35.0806 19.57C34.7806 18.33 34.2606 17.46 33.5206 16.96C32.7806 16.44 31.8006 16.18 30.5806 16.18C27.7206 16.18 26.2306 17.78 26.1106 20.98C26.0906 21.52 26.0806 22.35 26.0806 23.47C26.0806 24.59 26.0906 25.44 26.1106 26.02C26.2306 29.22 27.7206 30.82 30.5806 30.82C31.7806 30.82 32.7506 30.57 33.4906 30.07C34.2506 29.55 34.7806 28.67 35.0806 27.43C35.1606 27.15 35.2606 26.96 35.3806 26.86C35.5006 26.74 35.6806 26.68 35.9206 26.68H38.8306C39.0106 26.68 39.1606 26.74 39.2806 26.86C39.4206 26.98 39.4806 27.13 39.4606 27.31C39.4206 28.63 39.0306 29.82 38.2906 30.88C37.5706 31.94 36.5506 32.78 35.2306 33.4C33.9106 34 32.3606 34.3 30.5806 34.3ZM43.4077 34C43.2077 34 43.0377 33.93 42.8977 33.79C42.7577 33.65 42.6877 33.48 42.6877 33.28V13.42C42.6877 13.2 42.7577 13.03 42.8977 12.91C43.0377 12.77 43.2077 12.7 43.4077 12.7H46.1377C46.3577 12.7 46.5277 12.77 46.6477 12.91C46.7877 13.03 46.8577 13.2 46.8577 13.42V20.26C48.0577 18.82 49.6677 18.1 51.6877 18.1C53.5277 18.1 54.9977 18.71 56.0977 19.93C57.1977 21.13 57.7477 22.77 57.7477 24.85V33.28C57.7477 33.48 57.6777 33.65 57.5377 33.79C57.4177 33.93 57.2477 34 57.0277 34H54.2977C54.0777 34 53.8977 33.93 53.7577 33.79C53.6177 33.65 53.5477 33.48 53.5477 33.28V25.03C53.5477 23.87 53.2577 22.97 52.6777 22.33C52.1177 21.67 51.3077 21.34 50.2477 21.34C49.2277 21.34 48.4077 21.67 47.7877 22.33C47.1677 22.99 46.8577 23.89 46.8577 25.03V33.28C46.8577 33.48 46.7877 33.65 46.6477 33.79C46.5277 33.93 46.3577 34 46.1377 34H43.4077ZM66.0842 34.3C65.0642 34.3 64.1242 34.1 63.2642 33.7C62.4242 33.28 61.7542 32.72 61.2542 32.02C60.7742 31.32 60.5342 30.55 60.5342 29.71C60.5342 28.35 61.0842 27.25 62.1842 26.41C63.2842 25.57 64.7942 25 66.7142 24.7L70.8242 24.1V23.47C70.8242 22.61 70.6042 21.96 70.1642 21.52C69.7242 21.08 69.0242 20.86 68.0642 20.86C67.4042 20.86 66.8742 20.98 66.4742 21.22C66.0742 21.46 65.7442 21.71 65.4842 21.97C65.2442 22.21 65.0842 22.37 65.0042 22.45C64.9242 22.69 64.7742 22.81 64.5542 22.81H62.2142C62.0342 22.81 61.8742 22.75 61.7342 22.63C61.6142 22.51 61.5542 22.35 61.5542 22.15C61.5742 21.65 61.8142 21.09 62.2742 20.47C62.7542 19.83 63.4842 19.28 64.4642 18.82C65.4442 18.34 66.6542 18.1 68.0942 18.1C70.4542 18.1 72.1742 18.63 73.2542 19.69C74.3342 20.75 74.8742 22.14 74.8742 23.86V33.28C74.8742 33.48 74.8042 33.65 74.6642 33.79C74.5442 33.93 74.3742 34 74.1542 34H71.6642C71.4642 34 71.2942 33.93 71.1542 33.79C71.0142 33.65 70.9442 33.48 70.9442 33.28V32.11C70.5042 32.75 69.8842 33.28 69.0842 33.7C68.2842 34.1 67.2842 34.3 66.0842 34.3ZM67.1042 31.42C68.2042 31.42 69.1042 31.06 69.8042 30.34C70.5042 29.62 70.8542 28.58 70.8542 27.22V26.62L67.8542 27.1C65.5542 27.46 64.4042 28.23 64.4042 29.41C64.4042 30.05 64.6642 30.55 65.1842 30.91C65.7242 31.25 66.3642 31.42 67.1042 31.42ZM79.4422 34C79.2422 34 79.0722 33.93 78.9322 33.79C78.7922 33.65 78.7222 33.48 78.7222 33.28V19.15C78.7222 18.93 78.7922 18.75 78.9322 18.61C79.0722 18.47 79.2422 18.4 79.4422 18.4H81.9022C82.1222 18.4 82.3022 18.47 82.4422 18.61C82.5822 18.75 82.6522 18.93 82.6522 19.15V20.38C83.6522 19.06 85.0922 18.4 86.9722 18.4H88.2322C88.4522 18.4 88.6222 18.47 88.7422 18.61C88.8822 18.73 88.9522 18.9 88.9522 19.12V21.31C88.9522 21.51 88.8822 21.68 88.7422 21.82C88.6222 21.96 88.4522 22.03 88.2322 22.03H85.8622C84.9222 22.03 84.1822 22.3 83.6422 22.84C83.1022 23.38 82.8322 24.12 82.8322 25.06V33.28C82.8322 33.48 82.7622 33.65 82.6222 33.79C82.4822 33.93 82.3122 34 82.1122 34H79.4422ZM91.8905 15.85C91.6905 15.85 91.5205 15.78 91.3805 15.64C91.2405 15.5 91.1705 15.33 91.1705 15.13V12.94C91.1705 12.72 91.2405 12.54 91.3805 12.4C91.5205 12.26 91.6905 12.19 91.8905 12.19H94.6505C94.8705 12.19 95.0505 12.26 95.1905 12.4C95.3305 12.54 95.4005 12.72 95.4005 12.94V15.13C95.4005 15.33 95.3205 15.5 95.1605 15.64C95.0205 15.78 94.8505 15.85 94.6505 15.85H91.8905ZM92.0105 34C91.8105 34 91.6405 33.93 91.5005 33.79C91.3605 33.65 91.2905 33.48 91.2905 33.28V19.12C91.2905 18.9 91.3605 18.73 91.5005 18.61C91.6405 18.47 91.8105 18.4 92.0105 18.4H94.5605C94.7605 18.4 94.9305 18.47 95.0705 18.61C95.2105 18.75 95.2805 18.92 95.2805 19.12V33.28C95.2805 33.48 95.2105 33.65 95.0705 33.79C94.9305 33.93 94.7605 34 94.5605 34H92.0105ZM105.17 34.3C103.65 34.3 102.38 34.07 101.36 33.61C100.34 33.15 99.58 32.62 99.08 32.02C98.6 31.4 98.36 30.87 98.36 30.43C98.36 30.23 98.42 30.07 98.54 29.95C98.68 29.83 98.84 29.77 99.02 29.77H101.48C101.64 29.77 101.78 29.85 101.9 30.01C102 30.09 102.22 30.28 102.56 30.58C102.92 30.88 103.32 31.12 103.76 31.3C104.22 31.46 104.72 31.54 105.26 31.54C106.06 31.54 106.71 31.39 107.21 31.09C107.71 30.77 107.96 30.32 107.96 29.74C107.96 29.34 107.84 29.02 107.6 28.78C107.38 28.52 106.97 28.29 106.37 28.09C105.79 27.87 104.91 27.63 103.73 27.37C102.03 27.01 100.77 26.46 99.95 25.72C99.15 24.98 98.75 24 98.75 22.78C98.75 21.98 98.99 21.23 99.47 20.53C99.95 19.81 100.66 19.23 101.6 18.79C102.56 18.33 103.7 18.1 105.02 18.1C106.38 18.1 107.55 18.32 108.53 18.76C109.51 19.18 110.25 19.69 110.75 20.29C111.27 20.89 111.53 21.42 111.53 21.88C111.53 22.06 111.46 22.22 111.32 22.36C111.2 22.48 111.05 22.54 110.87 22.54H108.62C108.4 22.54 108.23 22.46 108.11 22.3C107.97 22.2 107.74 22.02 107.42 21.76C107.12 21.48 106.78 21.26 106.4 21.1C106.02 20.94 105.56 20.86 105.02 20.86C104.28 20.86 103.71 21.02 103.31 21.34C102.91 21.66 102.71 22.08 102.71 22.6C102.71 22.96 102.8 23.26 102.98 23.5C103.18 23.74 103.57 23.97 104.15 24.19C104.73 24.39 105.6 24.6 106.76 24.82C110.36 25.52 112.16 27.09 112.16 29.53C112.16 30.95 111.54 32.1 110.3 32.98C109.08 33.86 107.37 34.3 105.17 34.3ZM115.946 34C115.746 34 115.576 33.93 115.436 33.79C115.296 33.65 115.226 33.48 115.226 33.28V19.12C115.226 18.9 115.296 18.73 115.436 18.61C115.576 18.47 115.746 18.4 115.946 18.4H118.316C118.536 18.4 118.706 18.47 118.826 18.61C118.966 18.73 119.036 18.9 119.036 19.12V20.14C120.116 18.78 121.566 18.1 123.386 18.1C125.606 18.1 127.156 18.99 128.036 20.77C128.516 19.97 129.196 19.33 130.076 18.85C130.956 18.35 131.906 18.1 132.926 18.1C134.566 18.1 135.906 18.66 136.946 19.78C137.986 20.9 138.506 22.53 138.506 24.67V33.28C138.506 33.48 138.436 33.65 138.296 33.79C138.176 33.93 138.006 34 137.786 34H135.296C135.096 34 134.926 33.93 134.786 33.79C134.646 33.65 134.576 33.48 134.576 33.28V24.91C134.576 23.65 134.306 22.74 133.766 22.18C133.246 21.62 132.556 21.34 131.696 21.34C130.916 21.34 130.246 21.63 129.686 22.21C129.146 22.77 128.876 23.67 128.876 24.91V33.28C128.876 33.48 128.806 33.65 128.666 33.79C128.546 33.93 128.376 34 128.156 34H125.636C125.436 34 125.266 33.93 125.126 33.79C124.986 33.65 124.916 33.48 124.916 33.28V24.91C124.916 23.67 124.646 22.77 124.106 22.21C123.566 21.63 122.876 21.34 122.036 21.34C121.256 21.34 120.586 21.63 120.026 22.21C119.486 22.77 119.216 23.67 119.216 24.91V33.28C119.216 33.48 119.146 33.65 119.006 33.79C118.886 33.93 118.716 34 118.496 34H115.946ZM146.856 34.3C145.836 34.3 144.896 34.1 144.036 33.7C143.196 33.28 142.526 32.72 142.026 32.02C141.546 31.32 141.306 30.55 141.306 29.71C141.306 28.35 141.856 27.25 142.956 26.41C144.056 25.57 145.566 25 147.486 24.7L151.596 24.1V23.47C151.596 22.61 151.376 21.96 150.936 21.52C150.496 21.08 149.796 20.86 148.836 20.86C148.176 20.86 147.646 20.98 147.246 21.22C146.846 21.46 146.516 21.71 146.256 21.97C146.016 22.21 145.856 22.37 145.776 22.45C145.696 22.69 145.546 22.81 145.326 22.81H142.986C142.806 22.81 142.646 22.75 142.506 22.63C142.386 22.51 142.326 22.35 142.326 22.15C142.346 21.65 142.586 21.09 143.046 20.47C143.526 19.83 144.256 19.28 145.236 18.82C146.216 18.34 147.426 18.1 148.866 18.1C151.226 18.1 152.946 18.63 154.026 19.69C155.106 20.75 155.646 22.14 155.646 23.86V33.28C155.646 33.48 155.576 33.65 155.436 33.79C155.316 33.93 155.146 34 154.926 34H152.436C152.236 34 152.066 33.93 151.926 33.79C151.786 33.65 151.716 33.48 151.716 33.28V32.11C151.276 32.75 150.656 33.28 149.856 33.7C149.056 34.1 148.056 34.3 146.856 34.3ZM147.876 31.42C148.976 31.42 149.876 31.06 150.576 30.34C151.276 29.62 151.626 28.58 151.626 27.22V26.62L148.626 27.1C146.326 27.46 145.176 28.23 145.176 29.41C145.176 30.05 145.436 30.55 145.956 30.91C146.496 31.25 147.136 31.42 147.876 31.42ZM167.4 34C167.2 34 167.03 33.93 166.89 33.79C166.75 33.65 166.68 33.48 166.68 33.28V13.75C166.68 13.53 166.74 13.35 166.86 13.21C167 13.07 167.18 13 167.4 13H175.44C177.86 13 179.76 13.57 181.14 14.71C182.52 15.85 183.21 17.51 183.21 19.69C183.21 21.85 182.52 23.49 181.14 24.61C179.76 25.71 177.86 26.26 175.44 26.26H171.03V33.28C171.03 33.5 170.96 33.68 170.82 33.82C170.68 33.94 170.5 34 170.28 34H167.4ZM175.29 22.9C176.45 22.9 177.33 22.63 177.93 22.09C178.55 21.53 178.86 20.72 178.86 19.66C178.86 18.62 178.56 17.81 177.96 17.23C177.38 16.65 176.49 16.36 175.29 16.36H170.97V22.9H175.29ZM186.845 34C186.645 34 186.475 33.93 186.335 33.79C186.195 33.65 186.125 33.48 186.125 33.28V19.15C186.125 18.93 186.195 18.75 186.335 18.61C186.475 18.47 186.645 18.4 186.845 18.4H189.305C189.525 18.4 189.705 18.47 189.845 18.61C189.985 18.75 190.055 18.93 190.055 19.15V20.38C191.055 19.06 192.495 18.4 194.375 18.4H195.635C195.855 18.4 196.025 18.47 196.145 18.61C196.285 18.73 196.355 18.9 196.355 19.12V21.31C196.355 21.51 196.285 21.68 196.145 21.82C196.025 21.96 195.855 22.03 195.635 22.03H193.265C192.325 22.03 191.585 22.3 191.045 22.84C190.505 23.38 190.235 24.12 190.235 25.06V33.28C190.235 33.48 190.165 33.65 190.025 33.79C189.885 33.93 189.715 34 189.515 34H186.845ZM205.418 34.3C203.058 34.3 201.238 33.7 199.958 32.5C198.678 31.3 197.988 29.64 197.888 27.52L197.858 26.2L197.888 24.88C197.988 22.78 198.688 21.13 199.988 19.93C201.288 18.71 203.098 18.1 205.418 18.1C207.718 18.1 209.518 18.71 210.818 19.93C212.118 21.13 212.818 22.78 212.918 24.88C212.938 25.12 212.948 25.56 212.948 26.2C212.948 26.84 212.938 27.28 212.918 27.52C212.818 29.64 212.128 31.3 210.848 32.5C209.568 33.7 207.758 34.3 205.418 34.3ZM205.418 31.27C206.478 31.27 207.288 30.94 207.848 30.28C208.428 29.62 208.738 28.65 208.778 27.37C208.798 27.17 208.808 26.78 208.808 26.2C208.808 25.62 208.798 25.23 208.778 25.03C208.738 23.75 208.428 22.78 207.848 22.12C207.268 21.44 206.458 21.1 205.418 21.1C204.358 21.1 203.538 21.44 202.958 22.12C202.378 22.78 202.068 23.75 202.028 25.03L201.998 26.2L202.028 27.37C202.068 28.65 202.378 29.62 202.958 30.28C203.538 30.94 204.358 31.27 205.418 31.27ZM222.061 34.3C220.041 34.3 218.491 33.66 217.411 32.38C216.331 31.08 215.741 29.35 215.641 27.19L215.611 26.2L215.641 25.21C215.721 23.09 216.301 21.38 217.381 20.08C218.481 18.76 220.041 18.1 222.061 18.1C223.981 18.1 225.511 18.76 226.651 20.08V13.42C226.651 13.2 226.721 13.03 226.861 12.91C227.001 12.77 227.171 12.7 227.371 12.7H229.981C230.201 12.7 230.371 12.77 230.491 12.91C230.631 13.03 230.701 13.2 230.701 13.42V33.28C230.701 33.48 230.631 33.65 230.491 33.79C230.371 33.93 230.201 34 229.981 34H227.551C227.351 34 227.181 33.93 227.041 33.79C226.901 33.65 226.831 33.48 226.831 33.28V32.17C225.731 33.59 224.141 34.3 222.061 34.3ZM223.201 31.06C224.341 31.06 225.181 30.7 225.721 29.98C226.281 29.24 226.591 28.33 226.651 27.25C226.671 27.01 226.681 26.63 226.681 26.11C226.681 25.57 226.671 25.18 226.651 24.94C226.611 23.94 226.301 23.09 225.721 22.39C225.141 21.69 224.301 21.34 223.201 21.34C221.061 21.34 219.921 22.66 219.781 25.3L219.751 26.2L219.781 27.1C219.921 29.74 221.061 31.06 223.201 31.06ZM240.489 34.3C238.649 34.3 237.199 33.7 236.139 32.5C235.079 31.3 234.549 29.65 234.549 27.55V19.12C234.549 18.9 234.619 18.73 234.759 18.61C234.899 18.47 235.069 18.4 235.269 18.4H237.969C238.169 18.4 238.339 18.47 238.479 18.61C238.619 18.75 238.689 18.92 238.689 19.12V27.37C238.689 29.83 239.759 31.06 241.899 31.06C242.939 31.06 243.759 30.73 244.359 30.07C244.979 29.41 245.289 28.51 245.289 27.37V19.12C245.289 18.9 245.359 18.73 245.499 18.61C245.639 18.47 245.809 18.4 246.009 18.4H248.679C248.899 18.4 249.069 18.47 249.189 18.61C249.329 18.73 249.399 18.9 249.399 19.12V33.28C249.399 33.48 249.329 33.65 249.189 33.79C249.069 33.93 248.899 34 248.679 34H246.189C245.989 34 245.819 33.93 245.679 33.79C245.539 33.65 245.469 33.48 245.469 33.28V32.05C244.369 33.55 242.709 34.3 240.489 34.3ZM260.111 34.3C257.911 34.3 256.151 33.69 254.831 32.47C253.531 31.25 252.841 29.56 252.761 27.4L252.731 26.2L252.761 25C252.841 22.84 253.531 21.15 254.831 19.93C256.151 18.71 257.911 18.1 260.111 18.1C261.691 18.1 263.021 18.38 264.101 18.94C265.201 19.5 266.011 20.19 266.531 21.01C267.071 21.81 267.361 22.58 267.401 23.32C267.421 23.52 267.351 23.69 267.191 23.83C267.051 23.97 266.881 24.04 266.681 24.04H264.011C263.791 24.04 263.631 24 263.531 23.92C263.431 23.82 263.331 23.65 263.231 23.41C262.931 22.65 262.531 22.1 262.031 21.76C261.551 21.42 260.931 21.25 260.171 21.25C259.151 21.25 258.351 21.57 257.771 22.21C257.211 22.85 256.911 23.83 256.871 25.15L256.841 26.26L256.871 27.25C256.991 29.85 258.091 31.15 260.171 31.15C260.951 31.15 261.581 30.99 262.061 30.67C262.541 30.33 262.931 29.77 263.231 28.99C263.311 28.77 263.401 28.61 263.501 28.51C263.621 28.41 263.791 28.36 264.011 28.36H266.681C266.881 28.36 267.051 28.43 267.191 28.57C267.351 28.71 267.421 28.88 267.401 29.08C267.361 29.78 267.081 30.54 266.561 31.36C266.041 32.16 265.241 32.85 264.161 33.43C263.081 34.01 261.731 34.3 260.111 34.3ZM277.609 34C275.789 34 274.419 33.53 273.499 32.59C272.579 31.63 272.119 30.23 272.119 28.39V21.61H269.749C269.549 21.61 269.379 21.54 269.239 21.4C269.099 21.26 269.029 21.09 269.029 20.89V19.12C269.029 18.92 269.099 18.75 269.239 18.61C269.379 18.47 269.549 18.4 269.749 18.4H272.119V13.42C272.119 13.2 272.189 13.03 272.329 12.91C272.469 12.77 272.639 12.7 272.839 12.7H275.329C275.549 12.7 275.719 12.77 275.839 12.91C275.979 13.03 276.049 13.2 276.049 13.42V18.4H279.799C279.999 18.4 280.169 18.47 280.309 18.61C280.449 18.75 280.519 18.92 280.519 19.12V20.89C280.519 21.09 280.449 21.26 280.309 21.4C280.169 21.54 279.999 21.61 279.799 21.61H276.049V28.06C276.049 28.92 276.199 29.57 276.499 30.01C276.799 30.45 277.289 30.67 277.969 30.67H280.069C280.289 30.67 280.459 30.74 280.579 30.88C280.719 31 280.789 31.17 280.789 31.39V33.28C280.789 33.48 280.719 33.65 280.579 33.79C280.459 33.93 280.289 34 280.069 34H277.609ZM284.049 15.85C283.849 15.85 283.679 15.78 283.539 15.64C283.399 15.5 283.329 15.33 283.329 15.13V12.94C283.329 12.72 283.399 12.54 283.539 12.4C283.679 12.26 283.849 12.19 284.049 12.19H286.809C287.029 12.19 287.209 12.26 287.349 12.4C287.489 12.54 287.559 12.72 287.559 12.94V15.13C287.559 15.33 287.479 15.5 287.319 15.64C287.179 15.78 287.009 15.85 286.809 15.85H284.049ZM284.169 34C283.969 34 283.799 33.93 283.659 33.79C283.519 33.65 283.449 33.48 283.449 33.28V19.12C283.449 18.9 283.519 18.73 283.659 18.61C283.799 18.47 283.969 18.4 284.169 18.4H286.719C286.919 18.4 287.089 18.47 287.229 18.61C287.369 18.75 287.439 18.92 287.439 19.12V33.28C287.439 33.48 287.369 33.65 287.229 33.79C287.089 33.93 286.919 34 286.719 34H284.169ZM298.318 34.3C295.958 34.3 294.138 33.7 292.858 32.5C291.578 31.3 290.888 29.64 290.788 27.52L290.758 26.2L290.788 24.88C290.888 22.78 291.588 21.13 292.888 19.93C294.188 18.71 295.998 18.1 298.318 18.1C300.618 18.1 302.418 18.71 303.718 19.93C305.018 21.13 305.718 22.78 305.818 24.88C305.838 25.12 305.848 25.56 305.848 26.2C305.848 26.84 305.838 27.28 305.818 27.52C305.718 29.64 305.028 31.3 303.748 32.5C302.468 33.7 300.658 34.3 298.318 34.3ZM298.318 31.27C299.378 31.27 300.188 30.94 300.748 30.28C301.328 29.62 301.638 28.65 301.678 27.37C301.698 27.17 301.708 26.78 301.708 26.2C301.708 25.62 301.698 25.23 301.678 25.03C301.638 23.75 301.328 22.78 300.748 22.12C300.168 21.44 299.358 21.1 298.318 21.1C297.258 21.1 296.438 21.44 295.858 22.12C295.278 22.78 294.968 23.75 294.928 25.03L294.898 26.2L294.928 27.37C294.968 28.65 295.278 29.62 295.858 30.28C296.438 30.94 297.258 31.27 298.318 31.27ZM309.891 34C309.691 34 309.521 33.93 309.381 33.79C309.241 33.65 309.171 33.48 309.171 33.28V19.12C309.171 18.9 309.241 18.73 309.381 18.61C309.521 18.47 309.691 18.4 309.891 18.4H312.381C312.601 18.4 312.771 18.47 312.891 18.61C313.031 18.73 313.101 18.9 313.101 19.12V20.35C314.321 18.85 315.991 18.1 318.111 18.1C319.951 18.1 321.411 18.7 322.491 19.9C323.571 21.1 324.111 22.75 324.111 24.85V33.28C324.111 33.48 324.041 33.65 323.901 33.79C323.781 33.93 323.611 34 323.391 34H320.691C320.491 34 320.321 33.93 320.181 33.79C320.041 33.65 319.971 33.48 319.971 33.28V25.03C319.971 23.87 319.681 22.97 319.101 22.33C318.541 21.67 317.731 21.34 316.671 21.34C315.651 21.34 314.831 21.67 314.211 22.33C313.591 22.99 313.281 23.89 313.281 25.03V33.28C313.281 33.48 313.211 33.65 313.071 33.79C312.951 33.93 312.781 34 312.561 34H309.891ZM335.828 34C335.628 34 335.458 33.93 335.318 33.79C335.178 33.65 335.108 33.48 335.108 33.28V13.75C335.108 13.53 335.168 13.35 335.288 13.21C335.428 13.07 335.608 13 335.828 13H343.148C349.048 13 352.058 15.72 352.178 21.16C352.218 22.32 352.238 23.1 352.238 23.5C352.238 23.88 352.218 24.65 352.178 25.81C352.098 28.61 351.338 30.68 349.898 32.02C348.478 33.34 346.278 34 343.298 34H335.828ZM343.148 30.52C344.808 30.52 346.008 30.15 346.748 29.41C347.488 28.67 347.878 27.44 347.918 25.72C347.958 24.52 347.978 23.77 347.978 23.47C347.978 23.15 347.958 22.41 347.918 21.25C347.878 19.61 347.468 18.41 346.688 17.65C345.908 16.87 344.678 16.48 342.998 16.48H339.338V30.52H343.148ZM360.371 34.3C359.351 34.3 358.411 34.1 357.551 33.7C356.711 33.28 356.041 32.72 355.541 32.02C355.061 31.32 354.821 30.55 354.821 29.71C354.821 28.35 355.371 27.25 356.471 26.41C357.571 25.57 359.081 25 361.001 24.7L365.111 24.1V23.47C365.111 22.61 364.891 21.96 364.451 21.52C364.011 21.08 363.311 20.86 362.351 20.86C361.691 20.86 361.161 20.98 360.761 21.22C360.361 21.46 360.031 21.71 359.771 21.97C359.531 22.21 359.371 22.37 359.291 22.45C359.211 22.69 359.061 22.81 358.841 22.81H356.501C356.321 22.81 356.161 22.75 356.021 22.63C355.901 22.51 355.841 22.35 355.841 22.15C355.861 21.65 356.101 21.09 356.561 20.47C357.041 19.83 357.771 19.28 358.751 18.82C359.731 18.34 360.941 18.1 362.381 18.1C364.741 18.1 366.461 18.63 367.541 19.69C368.621 20.75 369.161 22.14 369.161 23.86V33.28C369.161 33.48 369.091 33.65 368.951 33.79C368.831 33.93 368.661 34 368.441 34H365.951C365.751 34 365.581 33.93 365.441 33.79C365.301 33.65 365.231 33.48 365.231 33.28V32.11C364.791 32.75 364.171 33.28 363.371 33.7C362.571 34.1 361.571 34.3 360.371 34.3ZM361.391 31.42C362.491 31.42 363.391 31.06 364.091 30.34C364.791 29.62 365.141 28.58 365.141 27.22V26.62L362.141 27.1C359.841 27.46 358.691 28.23 358.691 29.41C358.691 30.05 358.951 30.55 359.471 30.91C360.011 31.25 360.651 31.42 361.391 31.42ZM373.729 34C373.529 34 373.359 33.93 373.219 33.79C373.079 33.65 373.009 33.48 373.009 33.28V19.12C373.009 18.9 373.079 18.73 373.219 18.61C373.359 18.47 373.529 18.4 373.729 18.4H376.219C376.439 18.4 376.609 18.47 376.729 18.61C376.869 18.73 376.939 18.9 376.939 19.12V20.35C378.159 18.85 379.829 18.1 381.949 18.1C383.789 18.1 385.249 18.7 386.329 19.9C387.409 21.1 387.949 22.75 387.949 24.85V33.28C387.949 33.48 387.879 33.65 387.739 33.79C387.619 33.93 387.449 34 387.229 34H384.529C384.329 34 384.159 33.93 384.019 33.79C383.879 33.65 383.809 33.48 383.809 33.28V25.03C383.809 23.87 383.519 22.97 382.939 22.33C382.379 21.67 381.569 21.34 380.509 21.34C379.489 21.34 378.669 21.67 378.049 22.33C377.429 22.99 377.119 23.89 377.119 25.03V33.28C377.119 33.48 377.049 33.65 376.909 33.79C376.789 33.93 376.619 34 376.399 34H373.729ZM398.509 34.3C396.309 34.3 394.549 33.69 393.229 32.47C391.929 31.25 391.239 29.56 391.159 27.4L391.129 26.2L391.159 25C391.239 22.84 391.929 21.15 393.229 19.93C394.549 18.71 396.309 18.1 398.509 18.1C400.089 18.1 401.419 18.38 402.499 18.94C403.599 19.5 404.409 20.19 404.929 21.01C405.469 21.81 405.759 22.58 405.799 23.32C405.819 23.52 405.749 23.69 405.589 23.83C405.449 23.97 405.279 24.04 405.079 24.04H402.409C402.189 24.04 402.029 24 401.929 23.92C401.829 23.82 401.729 23.65 401.629 23.41C401.329 22.65 400.929 22.1 400.429 21.76C399.949 21.42 399.329 21.25 398.569 21.25C397.549 21.25 396.749 21.57 396.169 22.21C395.609 22.85 395.309 23.83 395.269 25.15L395.239 26.26L395.269 27.25C395.389 29.85 396.489 31.15 398.569 31.15C399.349 31.15 399.979 30.99 400.459 30.67C400.939 30.33 401.329 29.77 401.629 28.99C401.709 28.77 401.799 28.61 401.899 28.51C402.019 28.41 402.189 28.36 402.409 28.36H405.079C405.279 28.36 405.449 28.43 405.589 28.57C405.749 28.71 405.819 28.88 405.799 29.08C405.759 29.78 405.479 30.54 404.959 31.36C404.439 32.16 403.639 32.85 402.559 33.43C401.479 34.01 400.129 34.3 398.509 34.3ZM415.677 34.3C413.437 34.3 411.657 33.66 410.337 32.38C409.037 31.1 408.347 29.28 408.267 26.92L408.237 26.17C408.237 23.67 408.887 21.7 410.187 20.26C411.507 18.82 413.327 18.1 415.647 18.1C418.027 18.1 419.857 18.82 421.137 20.26C422.437 21.7 423.087 23.62 423.087 26.02V26.65C423.087 26.85 423.017 27.02 422.877 27.16C422.737 27.3 422.557 27.37 422.337 27.37H412.377V27.61C412.417 28.73 412.717 29.66 413.277 30.4C413.857 31.12 414.647 31.48 415.647 31.48C416.787 31.48 417.717 31.02 418.437 30.1C418.617 29.88 418.757 29.75 418.857 29.71C418.957 29.65 419.127 29.62 419.367 29.62H422.007C422.187 29.62 422.337 29.67 422.457 29.77C422.597 29.87 422.667 30.01 422.667 30.19C422.667 30.67 422.377 31.24 421.797 31.9C421.237 32.54 420.427 33.1 419.367 33.58C418.307 34.06 417.077 34.3 415.677 34.3ZM418.947 24.82V24.76C418.947 23.58 418.647 22.64 418.047 21.94C417.467 21.22 416.667 20.86 415.647 20.86C414.627 20.86 413.827 21.22 413.247 21.94C412.667 22.64 412.377 23.58 412.377 24.76V24.82H418.947ZM426.991 34C426.791 34 426.621 33.93 426.481 33.79C426.341 33.65 426.271 33.48 426.271 33.28V19.15C426.271 18.93 426.341 18.75 426.481 18.61C426.621 18.47 426.791 18.4 426.991 18.4H429.451C429.671 18.4 429.851 18.47 429.991 18.61C430.131 18.75 430.201 18.93 430.201 19.15V20.38C431.201 19.06 432.641 18.4 434.521 18.4H435.781C436.001 18.4 436.171 18.47 436.291 18.61C436.431 18.73 436.501 18.9 436.501 19.12V21.31C436.501 21.51 436.431 21.68 436.291 21.82C436.171 21.96 436.001 22.03 435.781 22.03H433.411C432.471 22.03 431.731 22.3 431.191 22.84C430.651 23.38 430.381 24.12 430.381 25.06V33.28C430.381 33.48 430.311 33.65 430.171 33.79C430.031 33.93 429.861 34 429.661 34H426.991Z" fill="#3E0B3D"/>
</svg>
