<svg width="357" height="47" viewBox="0 0 357 47" fill="none" xmlns="http://www.w3.org/2000/svg">
<rect width="357" height="47" fill="white"/>
<path d="M29.5039 34C28.9039 34 28.5139 33.72 28.3339 33.16L21.9139 13.9C21.8939 13.84 21.8839 13.75 21.8839 13.63C21.8839 13.45 21.9439 13.3 22.0639 13.18C22.1839 13.06 22.3339 13 22.5139 13H25.1839C25.4439 13 25.6539 13.07 25.8139 13.21C25.9739 13.35 26.0839 13.5 26.1439 13.66L31.1539 29.02L36.1939 13.66C36.2339 13.5 36.3339 13.35 36.4939 13.21C36.6539 13.07 36.8639 13 37.1239 13H39.8239C39.9839 13 40.1239 13.06 40.2439 13.18C40.3839 13.3 40.4539 13.45 40.4539 13.63L40.3939 13.9L34.0039 33.16C33.8039 33.72 33.4139 34 32.8339 34H29.5039ZM48.4361 34.3C46.1961 34.3 44.4161 33.66 43.0961 32.38C41.7961 31.1 41.1061 29.28 41.0261 26.92L40.9961 26.17C40.9961 23.67 41.6461 21.7 42.9461 20.26C44.2661 18.82 46.0861 18.1 48.4061 18.1C50.7861 18.1 52.6161 18.82 53.8961 20.26C55.1961 21.7 55.8461 23.62 55.8461 26.02V26.65C55.8461 26.85 55.7761 27.02 55.6361 27.16C55.4961 27.3 55.3161 27.37 55.0961 27.37H45.1361V27.61C45.1761 28.73 45.4761 29.66 46.0361 30.4C46.6161 31.12 47.4061 31.48 48.4061 31.48C49.5461 31.48 50.4761 31.02 51.1961 30.1C51.3761 29.88 51.5161 29.75 51.6161 29.71C51.7161 29.65 51.8861 29.62 52.1261 29.62H54.7661C54.9461 29.62 55.0961 29.67 55.2161 29.77C55.3561 29.87 55.4261 30.01 55.4261 30.19C55.4261 30.67 55.1361 31.24 54.5561 31.9C53.9961 32.54 53.1861 33.1 52.1261 33.58C51.0661 34.06 49.8361 34.3 48.4361 34.3ZM51.7061 24.82V24.76C51.7061 23.58 51.4061 22.64 50.8061 21.94C50.2261 21.22 49.4261 20.86 48.4061 20.86C47.3861 20.86 46.5861 21.22 46.0061 21.94C45.4261 22.64 45.1361 23.58 45.1361 24.76V24.82H51.7061ZM65.7798 34.3C63.5398 34.3 61.7598 33.66 60.4398 32.38C59.1398 31.1 58.4498 29.28 58.3698 26.92L58.3398 26.17C58.3398 23.67 58.9898 21.7 60.2898 20.26C61.6098 18.82 63.4298 18.1 65.7498 18.1C68.1298 18.1 69.9598 18.82 71.2398 20.26C72.5398 21.7 73.1898 23.62 73.1898 26.02V26.65C73.1898 26.85 73.1198 27.02 72.9798 27.16C72.8398 27.3 72.6598 27.37 72.4398 27.37H62.4798V27.61C62.5198 28.73 62.8198 29.66 63.3798 30.4C63.9598 31.12 64.7498 31.48 65.7498 31.48C66.8898 31.48 67.8198 31.02 68.5398 30.1C68.7198 29.88 68.8598 29.75 68.9598 29.71C69.0598 29.65 69.2298 29.62 69.4698 29.62H72.1098C72.2898 29.62 72.4398 29.67 72.5598 29.77C72.6998 29.87 72.7698 30.01 72.7698 30.19C72.7698 30.67 72.4798 31.24 71.8998 31.9C71.3398 32.54 70.5298 33.1 69.4698 33.58C68.4098 34.06 67.1798 34.3 65.7798 34.3ZM69.0498 24.82V24.76C69.0498 23.58 68.7498 22.64 68.1498 21.94C67.5698 21.22 66.7698 20.86 65.7498 20.86C64.7298 20.86 63.9298 21.22 63.3498 21.94C62.7698 22.64 62.4798 23.58 62.4798 24.76V24.82H69.0498ZM77.0936 34C76.8936 34 76.7236 33.93 76.5836 33.79C76.4436 33.65 76.3736 33.48 76.3736 33.28V19.12C76.3736 18.9 76.4436 18.73 76.5836 18.61C76.7236 18.47 76.8936 18.4 77.0936 18.4H79.4636C79.6836 18.4 79.8536 18.47 79.9736 18.61C80.1136 18.73 80.1836 18.9 80.1836 19.12V20.14C81.2636 18.78 82.7136 18.1 84.5336 18.1C86.7536 18.1 88.3036 18.99 89.1836 20.77C89.6636 19.97 90.3436 19.33 91.2236 18.85C92.1036 18.35 93.0536 18.1 94.0736 18.1C95.7136 18.1 97.0536 18.66 98.0936 19.78C99.1336 20.9 99.6536 22.53 99.6536 24.67V33.28C99.6536 33.48 99.5836 33.65 99.4436 33.79C99.3236 33.93 99.1536 34 98.9336 34H96.4436C96.2436 34 96.0736 33.93 95.9336 33.79C95.7936 33.65 95.7236 33.48 95.7236 33.28V24.91C95.7236 23.65 95.4536 22.74 94.9136 22.18C94.3936 21.62 93.7036 21.34 92.8436 21.34C92.0636 21.34 91.3936 21.63 90.8336 22.21C90.2936 22.77 90.0236 23.67 90.0236 24.91V33.28C90.0236 33.48 89.9536 33.65 89.8136 33.79C89.6936 33.93 89.5236 34 89.3036 34H86.7836C86.5836 34 86.4136 33.93 86.2736 33.79C86.1336 33.65 86.0636 33.48 86.0636 33.28V24.91C86.0636 23.67 85.7936 22.77 85.2536 22.21C84.7136 21.63 84.0236 21.34 83.1836 21.34C82.4036 21.34 81.7336 21.63 81.1736 22.21C80.6336 22.77 80.3636 23.67 80.3636 24.91V33.28C80.3636 33.48 80.2936 33.65 80.1536 33.79C80.0336 33.93 79.8636 34 79.6436 34H77.0936ZM104.223 34C104.023 34 103.853 33.93 103.713 33.79C103.573 33.65 103.503 33.48 103.503 33.28V13.42C103.503 13.2 103.573 13.03 103.713 12.91C103.853 12.77 104.023 12.7 104.223 12.7H106.743C106.963 12.7 107.133 12.77 107.253 12.91C107.393 13.03 107.463 13.2 107.463 13.42V33.28C107.463 33.48 107.393 33.65 107.253 33.79C107.133 33.93 106.963 34 106.743 34H104.223ZM112.042 15.85C111.842 15.85 111.672 15.78 111.532 15.64C111.392 15.5 111.322 15.33 111.322 15.13V12.94C111.322 12.72 111.392 12.54 111.532 12.4C111.672 12.26 111.842 12.19 112.042 12.19H114.802C115.022 12.19 115.202 12.26 115.342 12.4C115.482 12.54 115.552 12.72 115.552 12.94V15.13C115.552 15.33 115.472 15.5 115.312 15.64C115.172 15.78 115.002 15.85 114.802 15.85H112.042ZM112.162 34C111.962 34 111.792 33.93 111.652 33.79C111.512 33.65 111.442 33.48 111.442 33.28V19.12C111.442 18.9 111.512 18.73 111.652 18.61C111.792 18.47 111.962 18.4 112.162 18.4H114.712C114.912 18.4 115.082 18.47 115.222 18.61C115.362 18.75 115.432 18.92 115.432 19.12V33.28C115.432 33.48 115.362 33.65 115.222 33.79C115.082 33.93 114.912 34 114.712 34H112.162ZM126.431 40.6C124.651 40.6 123.211 40.3 122.111 39.7C121.011 39.12 120.231 38.45 119.771 37.69C119.311 36.93 119.081 36.28 119.081 35.74C119.081 35.54 119.151 35.37 119.291 35.23C119.431 35.11 119.601 35.05 119.801 35.05H122.471C122.651 35.05 122.801 35.09 122.921 35.17C123.061 35.27 123.171 35.44 123.251 35.68C123.471 36.2 123.801 36.64 124.241 37C124.681 37.38 125.361 37.57 126.281 37.57C127.481 37.57 128.361 37.3 128.921 36.76C129.481 36.24 129.761 35.32 129.761 34V31.96C128.681 33.24 127.151 33.88 125.171 33.88C123.091 33.88 121.521 33.25 120.461 31.99C119.421 30.73 118.861 29.01 118.781 26.83L118.751 26.02L118.781 25.21C118.861 23.07 119.431 21.35 120.491 20.05C121.551 18.75 123.111 18.1 125.171 18.1C126.231 18.1 127.161 18.3 127.961 18.7C128.761 19.1 129.421 19.64 129.941 20.32V19.15C129.941 18.93 130.011 18.75 130.151 18.61C130.311 18.47 130.491 18.4 130.691 18.4H133.151C133.351 18.4 133.521 18.47 133.661 18.61C133.801 18.75 133.871 18.93 133.871 19.15L133.901 33.61C133.901 35.83 133.281 37.55 132.041 38.77C130.801 39.99 128.931 40.6 126.431 40.6ZM126.311 30.7C127.431 30.7 128.271 30.34 128.831 29.62C129.391 28.9 129.701 28.02 129.761 26.98C129.781 26.82 129.791 26.5 129.791 26.02C129.791 25.54 129.781 25.22 129.761 25.06C129.701 24.02 129.391 23.14 128.831 22.42C128.271 21.7 127.431 21.34 126.311 21.34C124.151 21.34 123.011 22.66 122.891 25.3L122.861 26.02C122.861 29.14 124.011 30.7 126.311 30.7ZM138.618 34C138.418 34 138.248 33.93 138.108 33.79C137.968 33.65 137.898 33.48 137.898 33.28V13.42C137.898 13.2 137.968 13.03 138.108 12.91C138.248 12.77 138.418 12.7 138.618 12.7H141.348C141.568 12.7 141.738 12.77 141.858 12.91C141.998 13.03 142.068 13.2 142.068 13.42V20.26C143.268 18.82 144.878 18.1 146.898 18.1C148.738 18.1 150.208 18.71 151.308 19.93C152.408 21.13 152.958 22.77 152.958 24.85V33.28C152.958 33.48 152.888 33.65 152.748 33.79C152.628 33.93 152.458 34 152.238 34H149.508C149.288 34 149.108 33.93 148.968 33.79C148.828 33.65 148.758 33.48 148.758 33.28V25.03C148.758 23.87 148.468 22.97 147.888 22.33C147.328 21.67 146.518 21.34 145.458 21.34C144.438 21.34 143.618 21.67 142.998 22.33C142.378 22.99 142.068 23.89 142.068 25.03V33.28C142.068 33.48 141.998 33.65 141.858 33.79C141.738 33.93 141.568 34 141.348 34H138.618ZM163.668 34C161.848 34 160.478 33.53 159.558 32.59C158.638 31.63 158.178 30.23 158.178 28.39V21.61H155.808C155.608 21.61 155.438 21.54 155.298 21.4C155.158 21.26 155.088 21.09 155.088 20.89V19.12C155.088 18.92 155.158 18.75 155.298 18.61C155.438 18.47 155.608 18.4 155.808 18.4H158.178V13.42C158.178 13.2 158.248 13.03 158.388 12.91C158.528 12.77 158.698 12.7 158.898 12.7H161.388C161.608 12.7 161.778 12.77 161.898 12.91C162.038 13.03 162.108 13.2 162.108 13.42V18.4H165.858C166.058 18.4 166.228 18.47 166.368 18.61C166.508 18.75 166.578 18.92 166.578 19.12V20.89C166.578 21.09 166.508 21.26 166.368 21.4C166.228 21.54 166.058 21.61 165.858 21.61H162.108V28.06C162.108 28.92 162.258 29.57 162.558 30.01C162.858 30.45 163.348 30.67 164.028 30.67H166.128C166.348 30.67 166.518 30.74 166.638 30.88C166.778 31 166.848 31.17 166.848 31.39V33.28C166.848 33.48 166.778 33.65 166.638 33.79C166.518 33.93 166.348 34 166.128 34H163.668ZM177.414 34C177.214 34 177.044 33.93 176.904 33.79C176.764 33.65 176.694 33.48 176.694 33.28V13.75C176.694 13.53 176.754 13.35 176.874 13.21C177.014 13.07 177.194 13 177.414 13H185.454C187.874 13 189.774 13.57 191.154 14.71C192.534 15.85 193.224 17.51 193.224 19.69C193.224 21.85 192.534 23.49 191.154 24.61C189.774 25.71 187.874 26.26 185.454 26.26H181.044V33.28C181.044 33.5 180.974 33.68 180.834 33.82C180.694 33.94 180.514 34 180.294 34H177.414ZM185.304 22.9C186.464 22.9 187.344 22.63 187.944 22.09C188.564 21.53 188.874 20.72 188.874 19.66C188.874 18.62 188.574 17.81 187.974 17.23C187.394 16.65 186.504 16.36 185.304 16.36H180.984V22.9H185.304ZM202.684 34.3C200.444 34.3 198.664 33.66 197.344 32.38C196.044 31.1 195.354 29.28 195.274 26.92L195.244 26.17C195.244 23.67 195.894 21.7 197.194 20.26C198.514 18.82 200.334 18.1 202.654 18.1C205.034 18.1 206.864 18.82 208.144 20.26C209.444 21.7 210.094 23.62 210.094 26.02V26.65C210.094 26.85 210.024 27.02 209.884 27.16C209.744 27.3 209.564 27.37 209.344 27.37H199.384V27.61C199.424 28.73 199.724 29.66 200.284 30.4C200.864 31.12 201.654 31.48 202.654 31.48C203.794 31.48 204.724 31.02 205.444 30.1C205.624 29.88 205.764 29.75 205.864 29.71C205.964 29.65 206.134 29.62 206.374 29.62H209.014C209.194 29.62 209.344 29.67 209.464 29.77C209.604 29.87 209.674 30.01 209.674 30.19C209.674 30.67 209.384 31.24 208.804 31.9C208.244 32.54 207.434 33.1 206.374 33.58C205.314 34.06 204.084 34.3 202.684 34.3ZM205.954 24.82V24.76C205.954 23.58 205.654 22.64 205.054 21.94C204.474 21.22 203.674 20.86 202.654 20.86C201.634 20.86 200.834 21.22 200.254 21.94C199.674 22.64 199.384 23.58 199.384 24.76V24.82H205.954ZM213.998 34C213.798 34 213.628 33.93 213.488 33.79C213.348 33.65 213.278 33.48 213.278 33.28V19.15C213.278 18.93 213.348 18.75 213.488 18.61C213.628 18.47 213.798 18.4 213.998 18.4H216.458C216.678 18.4 216.858 18.47 216.998 18.61C217.138 18.75 217.208 18.93 217.208 19.15V20.38C218.208 19.06 219.648 18.4 221.528 18.4H222.788C223.008 18.4 223.178 18.47 223.298 18.61C223.438 18.73 223.508 18.9 223.508 19.12V21.31C223.508 21.51 223.438 21.68 223.298 21.82C223.178 21.96 223.008 22.03 222.788 22.03H220.418C219.478 22.03 218.738 22.3 218.198 22.84C217.658 23.38 217.388 24.12 217.388 25.06V33.28C217.388 33.48 217.318 33.65 217.178 33.79C217.038 33.93 216.868 34 216.668 34H213.998ZM232.391 34.3C230.191 34.3 228.431 33.69 227.111 32.47C225.811 31.25 225.121 29.56 225.041 27.4L225.011 26.2L225.041 25C225.121 22.84 225.811 21.15 227.111 19.93C228.431 18.71 230.191 18.1 232.391 18.1C233.971 18.1 235.301 18.38 236.381 18.94C237.481 19.5 238.291 20.19 238.811 21.01C239.351 21.81 239.641 22.58 239.681 23.32C239.701 23.52 239.631 23.69 239.471 23.83C239.331 23.97 239.161 24.04 238.961 24.04H236.291C236.071 24.04 235.911 24 235.811 23.92C235.711 23.82 235.611 23.65 235.511 23.41C235.211 22.65 234.811 22.1 234.311 21.76C233.831 21.42 233.211 21.25 232.451 21.25C231.431 21.25 230.631 21.57 230.051 22.21C229.491 22.85 229.191 23.83 229.151 25.15L229.121 26.26L229.151 27.25C229.271 29.85 230.371 31.15 232.451 31.15C233.231 31.15 233.861 30.99 234.341 30.67C234.821 30.33 235.211 29.77 235.511 28.99C235.591 28.77 235.681 28.61 235.781 28.51C235.901 28.41 236.071 28.36 236.291 28.36H238.961C239.161 28.36 239.331 28.43 239.471 28.57C239.631 28.71 239.701 28.88 239.681 29.08C239.641 29.78 239.361 30.54 238.841 31.36C238.321 32.16 237.521 32.85 236.441 33.43C235.361 34.01 234.011 34.3 232.391 34.3ZM248.599 34.3C246.759 34.3 245.309 33.7 244.249 32.5C243.189 31.3 242.659 29.65 242.659 27.55V19.12C242.659 18.9 242.729 18.73 242.869 18.61C243.009 18.47 243.179 18.4 243.379 18.4H246.079C246.279 18.4 246.449 18.47 246.589 18.61C246.729 18.75 246.799 18.92 246.799 19.12V27.37C246.799 29.83 247.869 31.06 250.009 31.06C251.049 31.06 251.869 30.73 252.469 30.07C253.089 29.41 253.399 28.51 253.399 27.37V19.12C253.399 18.9 253.469 18.73 253.609 18.61C253.749 18.47 253.919 18.4 254.119 18.4H256.789C257.009 18.4 257.179 18.47 257.299 18.61C257.439 18.73 257.509 18.9 257.509 19.12V33.28C257.509 33.48 257.439 33.65 257.299 33.79C257.179 33.93 257.009 34 256.789 34H254.299C254.099 34 253.929 33.93 253.789 33.79C253.649 33.65 253.579 33.48 253.579 33.28V32.05C252.479 33.55 250.819 34.3 248.599 34.3ZM267.411 34.3C265.891 34.3 264.621 34.07 263.601 33.61C262.581 33.15 261.821 32.62 261.321 32.02C260.841 31.4 260.601 30.87 260.601 30.43C260.601 30.23 260.661 30.07 260.781 29.95C260.921 29.83 261.081 29.77 261.261 29.77H263.721C263.881 29.77 264.021 29.85 264.141 30.01C264.241 30.09 264.461 30.28 264.801 30.58C265.161 30.88 265.561 31.12 266.001 31.3C266.461 31.46 266.961 31.54 267.501 31.54C268.301 31.54 268.951 31.39 269.451 31.09C269.951 30.77 270.201 30.32 270.201 29.74C270.201 29.34 270.081 29.02 269.841 28.78C269.621 28.52 269.211 28.29 268.611 28.09C268.031 27.87 267.151 27.63 265.971 27.37C264.271 27.01 263.011 26.46 262.191 25.72C261.391 24.98 260.991 24 260.991 22.78C260.991 21.98 261.231 21.23 261.711 20.53C262.191 19.81 262.901 19.23 263.841 18.79C264.801 18.33 265.941 18.1 267.261 18.1C268.621 18.1 269.791 18.32 270.771 18.76C271.751 19.18 272.491 19.69 272.991 20.29C273.511 20.89 273.771 21.42 273.771 21.88C273.771 22.06 273.701 22.22 273.561 22.36C273.441 22.48 273.291 22.54 273.111 22.54H270.861C270.641 22.54 270.471 22.46 270.351 22.3C270.211 22.2 269.981 22.02 269.661 21.76C269.361 21.48 269.021 21.26 268.641 21.1C268.261 20.94 267.801 20.86 267.261 20.86C266.521 20.86 265.951 21.02 265.551 21.34C265.151 21.66 264.951 22.08 264.951 22.6C264.951 22.96 265.041 23.26 265.221 23.5C265.421 23.74 265.811 23.97 266.391 24.19C266.971 24.39 267.841 24.6 269.001 24.82C272.601 25.52 274.401 27.09 274.401 29.53C274.401 30.95 273.781 32.1 272.541 32.98C271.321 33.86 269.611 34.3 267.411 34.3ZM283.407 34.3C281.887 34.3 280.617 34.07 279.597 33.61C278.577 33.15 277.817 32.62 277.317 32.02C276.837 31.4 276.597 30.87 276.597 30.43C276.597 30.23 276.657 30.07 276.777 29.95C276.917 29.83 277.077 29.77 277.257 29.77H279.717C279.877 29.77 280.017 29.85 280.137 30.01C280.237 30.09 280.457 30.28 280.797 30.58C281.157 30.88 281.557 31.12 281.997 31.3C282.457 31.46 282.957 31.54 283.497 31.54C284.297 31.54 284.947 31.39 285.447 31.09C285.947 30.77 286.197 30.32 286.197 29.74C286.197 29.34 286.077 29.02 285.837 28.78C285.617 28.52 285.207 28.29 284.607 28.09C284.027 27.87 283.147 27.63 281.967 27.37C280.267 27.01 279.007 26.46 278.187 25.72C277.387 24.98 276.987 24 276.987 22.78C276.987 21.98 277.227 21.23 277.707 20.53C278.187 19.81 278.897 19.23 279.837 18.79C280.797 18.33 281.937 18.1 283.257 18.1C284.617 18.1 285.787 18.32 286.767 18.76C287.747 19.18 288.487 19.69 288.987 20.29C289.507 20.89 289.767 21.42 289.767 21.88C289.767 22.06 289.697 22.22 289.557 22.36C289.437 22.48 289.287 22.54 289.107 22.54H286.857C286.637 22.54 286.467 22.46 286.347 22.3C286.207 22.2 285.977 22.02 285.657 21.76C285.357 21.48 285.017 21.26 284.637 21.1C284.257 20.94 283.797 20.86 283.257 20.86C282.517 20.86 281.947 21.02 281.547 21.34C281.147 21.66 280.947 22.08 280.947 22.6C280.947 22.96 281.037 23.26 281.217 23.5C281.417 23.74 281.807 23.97 282.387 24.19C282.967 24.39 283.837 24.6 284.997 24.82C288.597 25.52 290.397 27.09 290.397 29.53C290.397 30.95 289.777 32.1 288.537 32.98C287.317 33.86 285.607 34.3 283.407 34.3ZM294.063 15.85C293.863 15.85 293.693 15.78 293.553 15.64C293.413 15.5 293.343 15.33 293.343 15.13V12.94C293.343 12.72 293.413 12.54 293.553 12.4C293.693 12.26 293.863 12.19 294.063 12.19H296.823C297.043 12.19 297.223 12.26 297.363 12.4C297.503 12.54 297.573 12.72 297.573 12.94V15.13C297.573 15.33 297.493 15.5 297.333 15.64C297.193 15.78 297.023 15.85 296.823 15.85H294.063ZM294.183 34C293.983 34 293.813 33.93 293.673 33.79C293.533 33.65 293.463 33.48 293.463 33.28V19.12C293.463 18.9 293.533 18.73 293.673 18.61C293.813 18.47 293.983 18.4 294.183 18.4H296.733C296.933 18.4 297.103 18.47 297.243 18.61C297.383 18.75 297.453 18.92 297.453 19.12V33.28C297.453 33.48 297.383 33.65 297.243 33.79C297.103 33.93 296.933 34 296.733 34H294.183ZM308.333 34.3C305.973 34.3 304.153 33.7 302.873 32.5C301.593 31.3 300.903 29.64 300.803 27.52L300.773 26.2L300.803 24.88C300.903 22.78 301.603 21.13 302.903 19.93C304.203 18.71 306.013 18.1 308.333 18.1C310.633 18.1 312.433 18.71 313.733 19.93C315.033 21.13 315.733 22.78 315.833 24.88C315.853 25.12 315.863 25.56 315.863 26.2C315.863 26.84 315.853 27.28 315.833 27.52C315.733 29.64 315.043 31.3 313.763 32.5C312.483 33.7 310.673 34.3 308.333 34.3ZM308.333 31.27C309.393 31.27 310.203 30.94 310.763 30.28C311.343 29.62 311.653 28.65 311.693 27.37C311.713 27.17 311.723 26.78 311.723 26.2C311.723 25.62 311.713 25.23 311.693 25.03C311.653 23.75 311.343 22.78 310.763 22.12C310.183 21.44 309.373 21.1 308.333 21.1C307.273 21.1 306.453 21.44 305.873 22.12C305.293 22.78 304.983 23.75 304.943 25.03L304.913 26.2L304.943 27.37C304.983 28.65 305.293 29.62 305.873 30.28C306.453 30.94 307.273 31.27 308.333 31.27ZM319.906 34C319.706 34 319.536 33.93 319.396 33.79C319.256 33.65 319.186 33.48 319.186 33.28V19.12C319.186 18.9 319.256 18.73 319.396 18.61C319.536 18.47 319.706 18.4 319.906 18.4H322.396C322.616 18.4 322.786 18.47 322.906 18.61C323.046 18.73 323.116 18.9 323.116 19.12V20.35C324.336 18.85 326.006 18.1 328.126 18.1C329.966 18.1 331.426 18.7 332.506 19.9C333.586 21.1 334.126 22.75 334.126 24.85V33.28C334.126 33.48 334.056 33.65 333.916 33.79C333.796 33.93 333.626 34 333.406 34H330.706C330.506 34 330.336 33.93 330.196 33.79C330.056 33.65 329.986 33.48 329.986 33.28V25.03C329.986 23.87 329.696 22.97 329.116 22.33C328.556 21.67 327.746 21.34 326.686 21.34C325.666 21.34 324.846 21.67 324.226 22.33C323.606 22.99 323.296 23.89 323.296 25.03V33.28C323.296 33.48 323.226 33.65 323.086 33.79C322.966 33.93 322.796 34 322.576 34H319.906Z" fill="#3E0B3D"/>
</svg>
